<svg width="40" height="24" viewBox="0 0 40 24" fill="none" xmlns="http://www.w3.org/2000/svg">
<path fill-rule="evenodd" clip-rule="evenodd" d="M5.04434 0.9624C4.22368 1.21423 3.42537 1.90451 3.07841 2.66212C2.82152 3.22313 2.73706 3.93153 2.73527 5.5397L2.73371 6.9262H2.27916C1.2942 6.9262 0.546589 7.358 0.183059 8.13694C0.000786235 8.52742 0.000786239 8.52781 4.95876e-06 11.9733C-0.000463809 13.9801 0.03235 15.5949 0.0785236 15.8399C0.421896 17.6614 2.26369 19.1898 4.11532 19.1898C4.25783 19.1898 4.37439 19.2147 4.37439 19.2451C4.37439 19.2755 4.22494 19.6885 4.04235 20.163C3.53944 21.4693 3.59046 22.0812 4.25626 22.7276C4.61597 23.0769 4.97645 23.174 5.90695 23.1718C7.18216 23.169 7.16747 23.1805 9.01536 20.7323L10.1795 19.1898H19.9998H29.82L30.9845 20.731C32.8382 23.1844 32.8185 23.169 34.093 23.1718C35.0236 23.174 35.384 23.0769 35.7437 22.7276C36.4095 22.0812 36.4606 21.4693 35.9577 20.163C35.775 19.6885 35.6256 19.2755 35.6256 19.2451C35.6256 19.2147 35.7422 19.1898 35.8847 19.1898C37.7363 19.1898 39.5781 17.6614 39.9215 15.8399C39.9677 15.5949 40.0005 13.9801 40 11.9733C39.9992 8.52781 39.9992 8.52742 39.8169 8.13694C39.4534 7.358 38.7058 6.9262 37.7208 6.9262H37.2663L37.2647 5.5397C37.2639 4.77717 37.2278 3.90825 37.1845 3.60885C37.0416 2.62002 36.559 1.8621 35.7364 1.33445C34.9225 0.812346 35.1604 0.827578 28.1577 0.851168L21.836 0.872493L21.384 1.05489C21.1093 1.16573 20.7494 1.40639 20.466 1.66869L20 2.10003L19.534 1.66869C19.2506 1.40639 18.8907 1.16573 18.616 1.05489C18.1652 0.872961 18.1532 0.872415 14.0809 0.850309L9.99782 0.828125L9.79468 1.03122C9.6303 1.19557 9.60069 1.28188 9.63952 1.48302C9.74413 2.02442 9.58811 2.00512 13.8617 2.00512C18.0801 2.00512 18.1225 2.00926 18.6887 2.47583C18.8436 2.60346 19.0613 2.8906 19.1726 3.11393L19.375 3.51995V6.67507V9.83026L19.1294 9.62373C18.9944 9.51007 18.7138 9.33089 18.5057 9.22551C17.6715 8.80285 17.642 8.80089 12.1317 8.80089C7.32638 8.80089 7.03067 8.793 7.02903 8.6642C7.02606 8.42775 6.71956 7.83511 6.45987 7.56375C6.02016 7.10422 5.67921 6.97752 4.78457 6.94112L3.98375 6.90847V5.21421C3.98375 3.54784 3.98711 3.51324 4.18611 3.11393C4.29744 2.8906 4.51518 2.60346 4.67003 2.47583C5.14302 2.08605 5.516 2.00512 6.83879 2.00512C7.92086 2.00512 8.04344 1.99091 8.23118 1.84319C8.50026 1.63159 8.51182 1.24337 8.25626 1.00325C8.08477 0.842186 8.00711 0.833749 6.7523 0.838905C5.80672 0.842732 5.31927 0.878039 5.04434 0.9624ZM34.6981 2.12448C35.1857 2.29062 35.576 2.63666 35.8139 3.11393C36.0129 3.51324 36.0163 3.54784 36.0163 5.21421V6.90847L35.2154 6.94112C34.3208 6.97752 33.9798 7.10422 33.5401 7.56375C33.2804 7.83511 32.9739 8.42775 32.971 8.6642C32.9693 8.793 32.6736 8.80089 27.8683 8.80089C22.358 8.80089 22.3285 8.80285 21.4943 9.22551C21.2862 9.33089 21.0056 9.51007 20.8706 9.62373L20.625 9.83026V6.67507V3.51995L20.8274 3.11393C21.0583 2.65056 21.4529 2.29211 21.9112 2.1294C22.3995 1.95607 34.1904 1.95154 34.6981 2.12448ZM5.34834 8.20888C5.84797 8.4176 5.85883 8.48719 5.85883 11.4813C5.85883 14.0827 5.86406 14.1762 6.02079 14.3754L6.18267 14.5812H17.1931C28.0993 14.5812 28.2049 14.5797 28.3597 14.425C28.6136 14.1711 28.5949 13.8391 28.3123 13.5853L28.1166 13.4095H24.3708H20.625V12.7485C20.625 11.3944 21.2888 10.4566 22.5023 10.0963C22.8638 9.98898 23.5861 9.97258 27.9442 9.97258H32.9693V11.691V13.4095H31.5735C30.2797 13.4095 30.1627 13.4213 29.9719 13.5714C29.7139 13.7743 29.6896 14.1924 29.9223 14.425C30.0698 14.5725 30.1827 14.5812 31.9479 14.5812H33.8173L33.9792 14.3754C34.1359 14.1762 34.1412 14.0827 34.1412 11.4813C34.1412 8.48719 34.152 8.4176 34.6517 8.20888C35.0375 8.04773 37.9389 8.05039 38.3263 8.21224C38.8356 8.42494 38.8408 8.46876 38.8138 12.3046L38.7898 15.7138L38.5418 16.2373C38.0964 17.1772 37.3026 17.7746 36.2757 17.9428C35.6623 18.0432 4.33775 18.0432 3.72429 17.9428C2.69738 17.7746 1.90359 17.1772 1.45819 16.2373L1.21021 15.7138L1.18622 12.3046C1.15943 8.49368 1.16693 8.42822 1.65655 8.2156C2.02493 8.05555 4.96848 8.05023 5.34834 8.20888ZM17.4977 10.0963C18.7112 10.4566 19.375 11.3944 19.375 12.7485V13.4095H13.2029H7.03075V11.691V9.97258H12.0558C16.4139 9.97258 17.1362 9.98898 17.4977 10.0963ZM8.61464 19.2875C8.57292 19.3412 8.11438 19.9514 7.59569 20.6437C7.077 21.3359 6.59425 21.9246 6.52284 21.952C6.45135 21.9795 6.13056 22.0019 5.80984 22.0019C5.2949 22.0019 5.20427 21.9795 5.03497 21.8101C4.92949 21.7047 4.84316 21.5818 4.84316 21.537C4.84316 21.4923 5.02731 20.9459 5.25232 20.3228L5.66148 19.1898H7.17599C8.37603 19.1898 8.6748 19.2101 8.61464 19.2875ZM34.7477 20.3228C34.9727 20.9459 35.1568 21.4923 35.1568 21.537C35.1568 21.5818 35.0705 21.7047 34.965 21.8101C34.7957 21.9795 34.7051 22.0019 34.1902 22.0019C33.8694 22.0019 33.5487 21.9795 33.4772 21.952C33.4058 21.9246 32.923 21.3359 32.4043 20.6437C31.8856 19.9514 31.4271 19.3412 31.3854 19.2875C31.3252 19.2101 31.624 19.1898 32.824 19.1898H34.3385L34.7477 20.3228Z" fill="#294857"/>
</svg>
