<svg width="40" height="38" viewBox="0 0 40 38" fill="none" xmlns="http://www.w3.org/2000/svg">
<path fill-rule="evenodd" clip-rule="evenodd" d="M8.68428 0.238883C7.08679 0.694684 5.81434 1.90149 5.24834 3.49765L5.03325 4.1043L4.99418 8.86197L4.9551 13.6196L4.45576 13.634C3.35276 13.6657 2.33463 14.0903 1.49555 14.8686C-0.0366048 16.2898 -0.434415 18.4823 0.501651 20.347C0.790435 20.9223 1.38176 21.6319 1.82138 21.9307L2.10133 22.1211L2.10251 26.8007C2.10313 29.5925 2.1358 31.6849 2.18332 31.9874C2.4188 33.4846 3.61567 34.6829 5.149 34.9563L5.67913 35.0508L5.71391 35.6835C5.78331 36.9439 6.5261 37.7424 7.70296 37.8218C8.60331 37.8825 9.29913 37.5076 9.72062 36.7347C9.90538 36.3959 9.9543 36.1974 9.98182 35.6736L10.0157 35.0292H20H29.9843L30.0182 35.6736C30.0457 36.1964 30.0947 36.3962 30.278 36.7323C30.6931 37.4933 31.4112 37.8815 32.2943 37.822C33.474 37.7424 34.2166 36.9451 34.2861 35.6835L34.3209 35.0508L34.851 34.9563C36.3843 34.6829 37.5812 33.4846 37.8167 31.9874C37.8642 31.6849 37.8969 29.5925 37.8975 26.8007L37.8987 22.1211L38.1786 21.9307C38.6182 21.6319 39.2096 20.9223 39.4984 20.347C40.4344 18.4823 40.0366 16.2898 38.5045 14.8686C37.6654 14.0903 36.6472 13.6657 35.5442 13.634L35.0449 13.6196L35.0058 8.86197L34.9667 4.1043L34.7517 3.49765C34.1689 1.85415 32.7922 0.587987 31.1762 0.209011C30.7331 0.105123 29.2967 0.0904596 19.9218 0.0942813C9.82191 0.098415 9.14594 0.10715 8.68428 0.238883ZM30.723 1.57844C32.1487 1.87763 33.2926 3.0867 33.5186 4.53327C33.5653 4.83206 33.5977 6.86601 33.5975 9.48592L33.5972 13.9316L33.1096 14.197C32.4111 14.5771 31.5776 15.4459 31.2244 16.1621C30.7879 17.0473 30.7102 17.5659 30.7086 19.6057C30.7079 20.5816 30.6906 21.3801 30.6701 21.3801C30.6496 21.3801 30.5178 21.3094 30.377 21.2228C30.2362 21.1363 29.8976 20.9959 29.6244 20.9108C29.141 20.7603 28.8831 20.7561 20 20.7561C11.1169 20.7561 10.859 20.7603 10.3756 20.9108C10.1024 20.9959 9.76376 21.1363 9.623 21.2228C9.48225 21.3094 9.3504 21.3801 9.32992 21.3801C9.30945 21.3801 9.2921 20.5816 9.29139 19.6057C9.28983 17.5659 9.21214 17.0473 8.77557 16.1621C8.42238 15.4459 7.58893 14.5771 6.89038 14.197L6.40285 13.9316L6.40246 9.48592C6.4023 6.86601 6.43466 4.83206 6.48139 4.53327C6.70195 3.1218 7.77783 1.95133 9.17549 1.60231C9.70796 1.46933 30.0956 1.44671 30.723 1.57844ZM6.03614 15.3995C6.71461 15.7341 7.21332 16.2347 7.55025 16.9194L7.76869 17.3634L7.81543 21.1461C7.84864 23.8351 7.89038 25.0191 7.95978 25.2408C8.26795 26.2255 9.04958 27.1271 9.97361 27.5639L10.5041 27.8147L15.761 27.8368L21.0179 27.8589L21.2123 27.6648C21.5047 27.3731 21.4841 26.9185 21.1663 26.6517L20.9259 26.4498H16.0614C10.5601 26.4498 10.6466 26.4579 10.0212 25.8826C9.33531 25.2517 9.12453 24.3965 9.44567 23.5477C9.63817 23.039 10.2011 22.472 10.6827 22.3017C11.1105 22.1505 28.8895 22.1505 29.3173 22.3017C29.7989 22.472 30.3618 23.039 30.5543 23.5477C30.8755 24.3965 30.6647 25.2517 29.9788 25.8826C29.5465 26.2802 29.0176 26.4498 28.2095 26.4498C27.5273 26.4498 27.3253 26.5483 27.194 26.9457C27.0863 27.271 27.1836 27.5606 27.4613 27.7422C27.6284 27.8515 27.8109 27.867 28.5785 27.8373C29.3981 27.8056 29.5522 27.776 30.0247 27.5591C30.9422 27.1379 31.7301 26.2317 32.0402 25.2408C32.1096 25.0191 32.1514 23.8351 32.1846 21.1461L32.2313 17.3634L32.4498 16.9194C33.3083 15.1748 35.4597 14.5304 37.0514 15.5411C39.0517 16.8113 39.0647 19.6311 37.0763 20.9481C36.3531 21.4271 36.4126 20.9131 36.4126 26.6872C36.4126 32.31 36.4209 32.2039 35.9357 32.7913C35.8048 32.9497 35.5332 33.1759 35.3322 33.2939L34.9667 33.5083H20H5.03325L4.6678 33.2939C4.46678 33.1759 4.19519 32.9497 4.06428 32.7913C3.5791 32.2039 3.58738 32.31 3.58738 26.6872C3.58738 20.9131 3.64686 21.4271 2.92369 20.9481C1.26773 19.8513 0.937054 17.5815 2.22576 16.158C2.93275 15.377 3.71337 15.0484 4.77229 15.0859C5.3694 15.1071 5.51829 15.144 6.03614 15.3995ZM23.2434 26.5398C22.8354 26.7626 22.754 27.3334 23.0836 27.6622C23.2674 27.8457 23.3174 27.8537 24.2843 27.8537C25.2702 27.8537 25.2979 27.849 25.4993 27.6481C25.7883 27.3596 25.7795 26.9797 25.4769 26.6777C25.2498 26.4512 25.2429 26.4498 24.3241 26.4521C23.8071 26.4534 23.3309 26.4921 23.2434 26.5398ZM8.58932 35.3826C8.58932 36.0837 8.19886 36.5284 7.69421 36.4019C7.32586 36.3097 7.18253 36.0631 7.18253 35.5214V35.0292H7.88592H8.58932V35.3826ZM32.8175 35.5214C32.8175 36.0631 32.6741 36.3097 32.3058 36.4019C31.8011 36.5284 31.4107 36.0837 31.4107 35.3826V35.0292H32.1141H32.8175V35.5214Z" fill="#294857"/>
</svg>
