<svg width="40" height="28" viewBox="0 0 40 28" fill="none" xmlns="http://www.w3.org/2000/svg">
<path fill-rule="evenodd" clip-rule="evenodd" d="M4.17926 0.595991C3.33005 0.864875 2.66168 1.42051 2.31375 2.14674C2.19751 2.38949 1.69123 4.33448 1.05942 6.96584L0 11.3778V14.6334V17.8889L0.191777 18.0804C0.297235 18.1857 0.474561 18.2719 0.585878 18.2719C0.868584 18.2719 1.17176 17.9474 1.17176 17.6449C1.17176 17.5106 1.19808 17.4142 1.23034 17.4306C1.26253 17.4469 1.49985 17.5639 1.75763 17.6906L2.22634 17.9208H19.998H37.7696L38.2383 17.6906C38.4961 17.5639 38.7333 17.4469 38.7656 17.4306C38.7979 17.4142 38.8242 18.3295 38.8242 19.4646C38.8242 21.7595 38.7847 22.0009 38.3326 22.4712C38.1948 22.6146 37.9415 22.8077 37.7696 22.9005L37.4571 23.0692H19.998H2.5388L2.22634 22.9005C1.4522 22.4827 1.17176 21.9256 1.17176 20.8059C1.17176 20.2161 1.14488 20.0502 1.0256 19.903C0.819995 19.6495 0.349261 19.6526 0.14147 19.9088C-0.00195292 20.0857 -0.00820229 20.2219 0.0148422 22.6741L0.0390585 25.2533L0.248412 25.6994C0.541742 26.3243 1.09169 26.883 1.71162 27.186L2.22634 27.4375H19.9996H37.7729L38.2872 27.1847C38.9066 26.8801 39.4552 26.3223 39.7475 25.6994L39.9569 25.2533L39.9784 18.3273L40 11.4013L38.9386 6.97754C38.3042 4.33331 37.7988 2.39004 37.6822 2.14674C37.4073 1.57309 36.8845 1.06753 36.2639 0.775091C35.7849 0.549499 35.6576 0.525083 34.8198 0.498874C34.3145 0.483116 33.8114 0.492633 33.7017 0.520091C33.445 0.584446 33.2634 0.984457 33.3672 1.25693C33.4957 1.59477 33.6548 1.65156 34.4796 1.65421C34.9043 1.65562 35.3879 1.69743 35.5544 1.74727C35.9106 1.85383 36.4367 2.28153 36.6004 2.59769C36.7185 2.82562 38.7182 11.0263 38.7986 11.6122C38.9041 12.3807 38.3174 13.2508 37.542 13.4759C37.1883 13.5786 35.0261 13.5904 19.8389 13.5727C2.96087 13.553 2.53146 13.5489 2.2368 13.4028C1.63132 13.1028 1.17176 12.4072 1.17176 11.7909C1.17176 11.4861 3.25733 2.86454 3.39575 2.5973C3.55925 2.28153 4.08552 1.85375 4.44158 1.74727C4.66609 1.68011 8.17292 1.65671 18.0282 1.65671C25.3344 1.65671 31.3691 1.63487 31.4386 1.60827C31.5082 1.58159 31.6193 1.45514 31.6855 1.32721C31.7846 1.13587 31.7891 1.05404 31.711 0.865655C31.6587 0.739755 31.5528 0.602933 31.4756 0.561668C31.245 0.438419 4.57086 0.471962 4.17926 0.595991ZM5.94932 2.79567C5.68583 2.97999 5.61013 3.24693 5.70958 3.64124C5.99994 4.79292 7.48447 5.24371 8.34556 4.44166C8.85957 3.96286 8.98268 3.10402 8.58014 2.80495C8.20963 2.52974 7.8035 2.74598 7.65477 3.29755C7.51213 3.82635 6.94281 3.801 6.84141 3.26128C6.78829 2.97835 6.4834 2.67078 6.25624 2.67078C6.18562 2.67078 6.04751 2.72694 5.94932 2.79567ZM12.3679 2.87234C12.1864 3.05355 12.1709 3.11455 12.2138 3.47634C12.2745 3.98876 12.5806 4.43136 13.0456 4.6795C13.3334 4.83309 13.484 4.86187 13.877 4.83832C14.5002 4.80103 14.9138 4.52856 15.1912 3.97277C15.5251 3.30371 15.4027 2.80448 14.8801 2.70393C14.5905 2.64816 14.2173 2.90838 14.2173 3.16611C14.2173 3.41838 14.0005 3.68485 13.7953 3.68485C13.5747 3.68485 13.358 3.45778 13.358 3.22665C13.358 2.99146 13.02 2.67078 12.7721 2.67078C12.6586 2.67078 12.4811 2.75931 12.3679 2.87234ZM18.9949 2.79567C18.7408 2.97344 18.6716 3.21393 18.7583 3.61956C19.0056 4.77724 20.5223 5.25089 21.3911 4.44166C21.9051 3.96286 22.0282 3.10402 21.6257 2.80495C21.2552 2.52974 20.8491 2.74598 20.7003 3.29755C20.5577 3.82635 19.9884 3.801 19.887 3.26128C19.8338 2.97835 19.529 2.67078 19.3018 2.67078C19.2312 2.67078 19.0931 2.72694 18.9949 2.79567ZM25.4134 2.87234C25.232 3.05355 25.2164 3.11455 25.2593 3.47634C25.3201 3.98876 25.6261 4.43136 26.0911 4.6795C26.379 4.83309 26.5296 4.86187 26.9226 4.83832C27.5457 4.80103 27.9593 4.52856 28.2367 3.97277C28.5706 3.30371 28.4482 2.80448 27.9256 2.70393C27.636 2.64816 27.2629 2.90838 27.2629 3.16611C27.2629 3.41838 27.0461 3.68485 26.8409 3.68485C26.6203 3.68485 26.4036 3.45778 26.4036 3.22665C26.4036 2.99146 26.0656 2.67078 25.8177 2.67078C25.7042 2.67078 25.5266 2.75931 25.4134 2.87234ZM32.0404 2.79567C31.7863 2.97344 31.7172 3.21393 31.8038 3.61956C32.0511 4.77724 33.5678 5.25089 34.4367 4.44166C34.9507 3.96286 35.0738 3.10402 34.6712 2.80495C34.3007 2.52974 33.8946 2.74598 33.7459 3.29755C33.6032 3.82635 33.0339 3.801 32.9325 3.26128C32.8794 2.97835 32.5745 2.67078 32.3473 2.67078C32.2767 2.67078 32.1386 2.72694 32.0404 2.79567ZM5.39008 6.41504C5.30415 6.50084 5.23009 6.63244 5.22556 6.70756C5.18846 7.31982 5.42703 7.8182 5.92409 8.16673C6.22031 8.37438 6.32889 8.40418 6.78908 8.40418C7.22919 8.40418 7.36722 8.36993 7.63204 8.19489C8.04215 7.9239 8.29595 7.50602 8.34212 7.02582C8.37329 6.70241 8.35071 6.61177 8.19893 6.45053C7.86428 6.09483 7.31371 6.27088 7.22122 6.76318C7.10733 7.36951 6.55762 7.44689 6.40427 6.87816C6.35748 6.70475 6.25077 6.49445 6.16711 6.4109C5.97017 6.21425 5.58912 6.21628 5.39008 6.41504ZM12.0656 6.45053C11.4434 7.07177 12.4128 8.43975 13.4752 8.43975C14.2826 8.43975 15.0766 7.66742 15.0766 6.88206C15.0766 6.57152 14.7718 6.25903 14.4688 6.25903C14.2047 6.25903 13.9048 6.54156 13.9048 6.79056C13.9048 6.9858 13.649 7.2731 13.4752 7.2731C13.3056 7.2731 13.0456 6.98768 13.0456 6.80156C13.0456 6.57776 12.7014 6.25903 12.4597 6.25903C12.3484 6.25903 12.171 6.34522 12.0656 6.45053ZM19.0513 6.33758C18.5316 6.64071 18.8122 7.70556 19.538 8.18521C19.9624 8.46564 20.6537 8.48998 21.1307 8.24122C21.8126 7.8856 22.1869 6.87098 21.7913 6.45053C21.6812 6.33345 21.5241 6.25903 21.3869 6.25903C21.1111 6.25903 20.7791 6.57004 20.7791 6.82847C20.7791 7.0894 20.5217 7.30383 20.2808 7.24346C20.1352 7.20695 20.0573 7.10063 19.9587 6.80444C19.8872 6.58946 19.7636 6.37877 19.6841 6.33625C19.5038 6.23992 19.2176 6.24054 19.0513 6.33758ZM25.7361 6.45053C25.5023 6.68385 25.4881 7.02504 25.6933 7.4763C26.0619 8.28662 26.9884 8.65286 27.7713 8.2977C28.3275 8.04535 28.7452 7.41296 28.7466 6.82106C28.7472 6.56926 28.412 6.25903 28.1393 6.25903C27.8751 6.25903 27.5753 6.54156 27.5753 6.79056C27.5753 6.97683 27.3221 7.2731 27.1631 7.2731C26.9656 7.2731 26.716 7.0291 26.716 6.83611C26.716 6.58283 26.3872 6.25903 26.1302 6.25903C26.0188 6.25903 25.8415 6.34522 25.7361 6.45053ZM32.5146 6.31121C32.46 6.33321 32.3629 6.45233 32.2989 6.57596C32.0725 7.01303 32.3829 7.76656 32.9543 8.16766C33.2364 8.36564 33.3611 8.40152 33.7708 8.40277C34.6524 8.40535 35.2902 7.86204 35.3692 7.04103C35.402 6.70093 35.3809 6.61364 35.2274 6.45053C35.1173 6.33345 34.9602 6.25903 34.823 6.25903C34.5473 6.25903 34.2153 6.57004 34.2153 6.82847C34.2153 7.0894 33.9579 7.30383 33.717 7.24346C33.5714 7.20695 33.4934 7.10063 33.3948 6.80444C33.2329 6.31761 32.9263 6.14584 32.5146 6.31121ZM4.92138 10.0033C4.69163 10.2327 4.71054 10.7936 4.96254 11.223C5.57178 12.2611 7.14943 12.2367 7.70797 11.1806C8.05863 10.5176 7.88389 9.84728 7.36042 9.84728C7.04561 9.84728 6.80993 10.0459 6.75072 10.361C6.71986 10.5253 6.62417 10.6851 6.51324 10.7578C6.34506 10.8678 6.30991 10.8678 6.14172 10.7578C6.03079 10.6851 5.9351 10.5253 5.90424 10.361C5.81425 9.88207 5.24884 9.67629 4.92138 10.0033ZM11.7233 10.0528C11.2682 10.6305 11.8845 11.7221 12.7951 11.9511C13.7161 12.1826 14.7559 11.4164 14.7624 10.5014C14.7649 10.1479 14.5 9.84728 14.1862 9.84728C13.8985 9.84728 13.5924 10.1136 13.5924 10.3639C13.5924 10.6113 13.4049 10.8028 13.1627 10.8028C12.9167 10.8028 12.7331 10.6106 12.7331 10.353C12.7331 9.89252 12.0171 9.67972 11.7233 10.0528ZM19.0869 9.96249C18.604 10.3002 18.9366 11.3749 19.6472 11.7729C20.301 12.1391 20.9525 12.0707 21.4986 11.5787C22.2423 10.9085 22.2158 9.84728 21.4552 9.84728C21.1455 9.84728 20.9394 10.0432 20.8645 10.4088C20.7983 10.7325 20.5049 10.9057 20.278 10.7553C20.195 10.7002 20.0797 10.5173 20.0219 10.3487C19.9641 10.1802 19.8581 9.99845 19.7862 9.94478C19.6104 9.8135 19.2882 9.82169 19.0869 9.96249ZM26.0266 10.0278C25.5445 10.5402 26.1691 11.7224 27.0465 11.9583C27.5733 12.0999 28.1396 11.9402 28.5437 11.5361C28.8501 11.2297 29.0595 10.7742 29.0595 10.4143C29.0595 10.1489 28.7629 9.84728 28.5019 9.84728C28.137 9.84728 27.9745 9.97825 27.8814 10.3474C27.7337 10.9332 27.1912 10.9846 27.0371 10.4274C26.9935 10.2698 26.8981 10.0748 26.8249 9.99408C26.6371 9.78682 26.2374 9.80375 26.0266 10.0278ZM32.9136 9.96249C32.4307 10.3002 32.7633 11.3749 33.4739 11.7729C34.1277 12.1391 34.7792 12.0707 35.3253 11.5787C36.0691 10.9085 36.0425 9.84728 35.282 9.84728C34.9722 9.84728 34.7662 10.0432 34.6912 10.4088C34.625 10.7325 34.3317 10.9057 34.1047 10.7553C34.0217 10.7002 33.9064 10.5173 33.8486 10.3487C33.7908 10.1802 33.6848 9.99845 33.6129 9.94478C33.4371 9.8135 33.1149 9.82169 32.9136 9.96249ZM1.99199 14.5745C2.3714 14.7184 2.8851 14.7226 19.998 14.7226C37.1108 14.7226 37.6245 14.7184 38.004 14.5745C38.2188 14.493 38.4912 14.359 38.6094 14.2767L38.8242 14.127L38.8207 14.6978C38.8149 15.6695 38.478 16.2809 37.7698 16.6047L37.3628 16.7908L19.9056 16.7708L2.44842 16.7508L2.06604 16.5147C1.83153 16.3699 1.5939 16.1336 1.45142 15.9035C1.2494 15.5772 1.21488 15.4367 1.18535 14.8205L1.15145 14.1125L1.37642 14.2695C1.50016 14.3558 1.77716 14.493 1.99199 14.5745ZM13.9361 18.8513C13.8028 18.9092 13.671 19.016 13.6431 19.0887C13.6152 19.1613 13.5924 19.826 13.5924 20.5658C13.5924 22.2941 13.5603 22.2501 14.8221 22.2501C15.6668 22.2501 15.6946 22.2446 15.8521 22.0446C16.0368 21.8101 16.0492 21.7107 15.9273 21.4433C15.8158 21.1991 15.5487 21.0801 15.112 21.0801H14.7641V20.534V19.988H19.998H25.2318V20.534V21.0801H21.6099C18.064 21.0801 17.9836 21.0834 17.7822 21.2418C17.5242 21.4443 17.4999 21.8618 17.7326 22.0941C17.8848 22.2462 17.9929 22.2501 21.9764 22.2501H26.0638L26.2337 22.0696C26.3946 21.8986 26.4036 21.8177 26.4036 20.5434C26.4036 19.8033 26.3691 19.1334 26.3271 19.055C26.164 18.7507 25.9429 18.7398 19.9668 18.7429C15.2849 18.7454 14.1319 18.7661 13.9361 18.8513ZM35.387 18.817C34.8806 18.9114 34.3776 19.2802 34.1493 19.7246C34.0822 19.855 33.9724 19.8978 33.6331 19.9259C33.1071 19.9695 32.8873 20.1408 32.8873 20.5071C32.8873 20.8957 33.1132 21.0801 33.5893 21.0801C33.9543 21.0801 33.9908 21.0986 34.1659 21.3726C34.5513 21.9756 35.0311 22.2501 35.6995 22.2501C36.7058 22.2501 37.4124 21.5345 37.4164 20.5114C37.4205 19.4284 36.4509 18.6188 35.387 18.817ZM36.0901 20.144C36.1769 20.2307 36.2463 20.404 36.2463 20.534C36.2463 20.6641 36.1769 20.8374 36.0901 20.924C35.7589 21.2548 35.1527 21.0138 35.1527 20.5514C35.1527 20.0358 35.7304 19.7848 36.0901 20.144ZM19.998 24.2393H37.7014L38.2719 23.9565L38.8424 23.6737L38.8095 24.3595C38.7811 24.9515 38.745 25.0964 38.5445 25.4202C38.402 25.6502 38.1644 25.8865 37.9299 26.0314L37.5475 26.2674H19.998H2.44842L2.06604 26.0314C1.83153 25.8865 1.5939 25.6502 1.45142 25.4202C1.25097 25.0964 1.2148 24.9515 1.18644 24.3595L1.15355 23.6737L1.72404 23.9565L2.29453 24.2393H19.998Z" fill="#294857"/>
</svg>
