<svg width="24" height="10" viewBox="0 0 24 10" fill="none" xmlns="http://www.w3.org/2000/svg">
	<path d="M0.354855 5C0.354396 5.11198 0.376114 5.22295 0.418756 5.3265C0.461398 5.43004 0.52412 5.52412 0.603304 5.60331C0.682488 5.68249 0.776567 5.74521 0.880114 5.78785C0.983661 5.8305 1.09463 5.85221 1.20661 5.85175L8.60846 5.85175C8.72044 5.85221 8.83141 5.8305 8.93496 5.78785C9.0385 5.74521 9.13258 5.68249 9.21177 5.60331C9.29095 5.52412 9.35367 5.43004 9.39631 5.3265C9.43896 5.22295 9.46067 5.11198 9.46021 5C9.45976 4.88836 9.43727 4.77791 9.39404 4.67498C9.35081 4.57205 9.28769 4.47866 9.20829 4.40018C9.1298 4.32078 9.03642 4.25765 8.93349 4.21442C8.83055 4.17119 8.7201 4.1487 8.60846 4.14825L1.20661 4.14825C1.09463 4.14779 0.98366 4.16951 0.880113 4.21215C0.776567 4.25479 0.682488 4.31751 0.603304 4.3967C0.52412 4.47588 0.461397 4.56996 0.418755 4.67351C0.376113 4.77705 0.354396 4.88802 0.354855 5V5ZM11.1517 8.39502C11.1517 8.62092 11.2415 8.83756 11.4012 8.9973C11.5609 9.15703 11.7776 9.24677 12.0035 9.24677C12.2294 9.24677 12.446 9.15703 12.6058 8.9973C12.7655 8.83756 12.8552 8.62092 12.8552 8.39502L12.8552 1.60499C12.8548 1.49334 12.8323 1.38289 12.7891 1.27996C12.7458 1.17703 12.6827 1.08364 12.6033 1.00516C12.5248 0.925762 12.4314 0.862638 12.3285 0.819406C12.2256 0.776175 12.1151 0.753688 12.0035 0.753232C11.8915 0.752773 11.7805 0.774491 11.677 0.817133C11.5734 0.859775 11.4794 0.922497 11.4002 1.00168C11.321 1.08087 11.2583 1.17494 11.2156 1.27849C11.173 1.38204 11.1513 1.493 11.1517 1.60499L11.1517 8.39502ZM15.3985 5.85175L20.7549 5.84575L19.8012 6.79948C19.6421 6.95856 19.5528 7.17433 19.5528 7.3993C19.5528 7.62428 19.6421 7.84005 19.8012 7.99913C19.9603 8.15821 20.1761 8.24759 20.401 8.24759C20.626 8.24759 20.8418 8.15821 21.0009 7.99913L23.4002 5.59983C23.4776 5.52049 23.5387 5.42675 23.5801 5.32391C23.6658 5.11647 23.6658 4.88353 23.5801 4.67609C23.5387 4.57325 23.4776 4.47951 23.4002 4.40017L21.0009 2.00087C20.8418 1.84179 20.626 1.75241 20.401 1.75241C20.1761 1.75241 19.9603 1.84179 19.8012 2.00087C19.6421 2.15995 19.5528 2.37572 19.5528 2.6007C19.5528 2.82567 19.6421 3.04144 19.8012 3.20052L20.7549 4.15425L15.3985 4.14825C15.1726 4.14825 14.9559 4.23799 14.7962 4.39772C14.6365 4.55746 14.5467 4.7741 14.5467 5C14.5467 5.2259 14.6365 5.44255 14.7962 5.60228C14.9559 5.76202 15.1726 5.85175 15.3985 5.85175V5.85175Z"
		  fill="#294857"/>
	<path d="M4.20529 2.00055C4.36438 2.15963 4.45375 2.37539 4.45375 2.60037C4.45375 2.82535 4.36438 3.04111 4.20529 3.2002L2.40582 4.99968L4.20529 6.79915C4.36438 6.95824 4.45375 7.174 4.45375 7.39898C4.45375 7.62396 4.36438 7.83972 4.2053 7.99881C4.04621 8.15789 3.83045 8.24726 3.60547 8.24726C3.38049 8.24726 3.16473 8.15789 3.00564 7.99881L0.606337 5.5995C0.447253 5.44042 0.35788 5.22465 0.35788 4.99968C0.35788 4.7747 0.447253 4.55893 0.606337 4.39985L3.00564 2.00055C3.16473 1.84146 3.38049 1.75209 3.60547 1.75209C3.83045 1.75209 4.04621 1.84146 4.20529 2.00055Z"
		  fill="#294857"/>
</svg>
