<svg width="19" height="19" viewBox="0 0 19 19" fill="none" xmlns="http://www.w3.org/2000/svg">
<path d="M17.9965 16.7535L14.7502 13.5335C16.0103 11.9623 16.6205 9.96812 16.4554 7.96087C16.2903 5.95362 15.3624 4.08592 13.8626 2.7418C12.3627 1.39768 10.4048 0.679305 8.39153 0.734395C6.37825 0.789485 4.4626 1.61385 3.03847 3.03798C1.61434 4.46211 0.789974 6.37777 0.734883 8.39104C0.679793 10.4043 1.39816 12.3622 2.74229 13.8621C4.08641 15.3619 5.95411 16.2898 7.96136 16.4549C9.96861 16.62 11.9628 16.0098 13.534 14.7497L16.754 17.9697C16.8353 18.0517 16.9321 18.1168 17.0387 18.1613C17.1453 18.2057 17.2597 18.2286 17.3752 18.2286C17.4907 18.2286 17.6051 18.2057 17.7117 18.1613C17.8184 18.1168 17.9151 18.0517 17.9965 17.9697C18.1542 17.8066 18.2423 17.5885 18.2423 17.3616C18.2423 17.1347 18.1542 16.9166 17.9965 16.7535ZM8.62522 14.7497C7.41381 14.7497 6.2296 14.3905 5.22235 13.7175C4.2151 13.0445 3.43005 12.0879 2.96646 10.9687C2.50287 9.84947 2.38158 8.61794 2.61791 7.4298C2.85425 6.24167 3.4376 5.1503 4.29419 4.2937C5.15079 3.43711 6.24216 2.85376 7.43029 2.61742C8.61843 2.38109 9.84996 2.50238 10.9692 2.96597C12.0884 3.42956 13.0449 4.21461 13.718 5.22187C14.391 6.22912 14.7502 7.41332 14.7502 8.62473C14.7502 10.2492 14.1049 11.8071 12.9562 12.9558C11.8076 14.1044 10.2497 14.7497 8.62522 14.7497Z" fill="#294857"/>
</svg>
