<svg width="20" height="20" viewBox="0 0 20 20" fill="none" xmlns="http://www.w3.org/2000/svg">
	<circle cx="10" cy="10" r="9.5" stroke="#2B2A29"/>
	<path d="M13.0994 10.4169C13.0078 10.4169 12.9119 10.3877 12.8203 10.3669C12.6346 10.326 12.4522 10.2717 12.2744 10.2044C12.0811 10.1341 11.8687 10.1377 11.6779 10.2147C11.4871 10.2916 11.3315 10.4363 11.2411 10.6211L11.1494 10.8086C10.7436 10.5828 10.3707 10.3024 10.0411 9.97523C9.71392 9.64565 9.43352 9.27273 9.20777 8.8669L9.38276 8.75023C9.5675 8.65978 9.71226 8.5042 9.78918 8.31343C9.8661 8.12267 9.86975 7.91019 9.79943 7.7169C9.73327 7.53874 9.67899 7.3564 9.63693 7.17106C9.6161 7.0794 9.59943 6.98356 9.58693 6.88773C9.53633 6.59424 9.38261 6.32846 9.15344 6.13825C8.92427 5.94804 8.63472 5.8459 8.33693 5.85023H7.08693C6.90736 5.84854 6.72954 5.88557 6.56556 5.95878C6.40159 6.032 6.25531 6.13969 6.13669 6.27451C6.01808 6.40934 5.9299 6.56814 5.87818 6.74011C5.82645 6.91208 5.81238 7.09317 5.83693 7.27106C6.05891 9.01664 6.85611 10.6385 8.10262 11.8805C9.34913 13.1225 10.9739 13.9138 12.7203 14.1294H12.8786C13.1859 14.1298 13.4825 14.0171 13.7119 13.8127C13.8437 13.6948 13.949 13.5503 14.0209 13.3887C14.0927 13.2271 14.1294 13.0521 14.1286 12.8752V11.6252C14.1235 11.3358 14.0181 11.0571 13.8304 10.8368C13.6427 10.6164 13.3844 10.468 13.0994 10.4169ZM13.3078 12.9169C13.3077 12.9761 13.295 13.0345 13.2706 13.0884C13.2462 13.1423 13.2105 13.1904 13.1661 13.2294C13.1197 13.2698 13.0653 13.3 13.0064 13.3179C12.9475 13.3359 12.8855 13.3412 12.8244 13.3336C11.264 13.1335 9.81453 12.4196 8.70473 11.3045C7.59493 10.1894 6.88794 8.73662 6.69527 7.17523C6.68863 7.1142 6.69445 7.05245 6.71235 6.99373C6.73025 6.935 6.75988 6.88052 6.79943 6.83356C6.83848 6.78912 6.88654 6.7535 6.94042 6.72907C6.9943 6.70464 7.05277 6.69197 7.11193 6.6919H8.36193C8.45883 6.68974 8.55344 6.72143 8.62949 6.78151C8.70554 6.84159 8.75827 6.9263 8.7786 7.02106C8.79526 7.13495 8.8161 7.24745 8.8411 7.35856C8.88923 7.57821 8.95329 7.79405 9.03276 8.0044L8.44943 8.27523C8.39956 8.29811 8.35469 8.33062 8.31741 8.3709C8.28014 8.41117 8.25118 8.4584 8.23221 8.50989C8.21324 8.56139 8.20463 8.61612 8.20687 8.67095C8.20911 8.72578 8.22216 8.77962 8.24526 8.8294C8.84493 10.1139 9.87745 11.1464 11.1619 11.7461C11.2634 11.7877 11.3772 11.7877 11.4786 11.7461C11.5306 11.7275 11.5783 11.6988 11.6191 11.6616C11.6599 11.6244 11.6928 11.5794 11.7161 11.5294L11.9744 10.9461C12.1898 11.0231 12.4097 11.0871 12.6328 11.1377C12.7439 11.1627 12.8564 11.1836 12.9703 11.2002C13.065 11.2206 13.1497 11.2733 13.2098 11.3493C13.2699 11.4254 13.3016 11.52 13.2994 11.6169L13.3078 12.9169Z"
		  fill="#2B2A29"/>
	<path d="M13.3078 12.9169C13.3077 12.9761 13.295 13.0345 13.2706 13.0884C13.2462 13.1423 13.2105 13.1904 13.1661 13.2294C13.1197 13.2698 13.0653 13.3 13.0064 13.3179C12.9475 13.3359 12.8855 13.3412 12.8244 13.3336C11.264 13.1335 9.81453 12.4196 8.70473 11.3045C7.59493 10.1894 6.88794 8.73662 6.69527 7.17523C6.68863 7.1142 6.69445 7.05245 6.71235 6.99373C6.73025 6.935 6.75988 6.88052 6.79943 6.83356C6.83848 6.78912 6.88654 6.7535 6.94042 6.72907C6.9943 6.70464 7.05277 6.69197 7.11193 6.6919H8.36193C8.45883 6.68974 8.55344 6.72143 8.62949 6.78151C8.70554 6.84159 8.75827 6.9263 8.7786 7.02106C8.79526 7.13495 8.8161 7.24745 8.8411 7.35856C8.88923 7.57821 8.95329 7.79405 9.03276 8.0044L8.44943 8.27523C8.39956 8.29811 8.35469 8.33062 8.31741 8.3709C8.28014 8.41117 8.25118 8.4584 8.23221 8.50989C8.21324 8.56139 8.20463 8.61612 8.20687 8.67095C8.20911 8.72578 8.22216 8.77962 8.24526 8.8294C8.84493 10.1139 9.87745 11.1464 11.1619 11.7461C11.2634 11.7877 11.3772 11.7877 11.4786 11.7461C11.5306 11.7275 11.5783 11.6988 11.6191 11.6616C11.6599 11.6244 11.6928 11.5794 11.7161 11.5294L11.9744 10.9461C12.1898 11.0231 12.4097 11.0871 12.6328 11.1377C12.7439 11.1627 12.8564 11.1836 12.9703 11.2002C13.065 11.2206 13.1497 11.2733 13.2098 11.3493C13.2699 11.4254 13.3016 11.52 13.2994 11.6169L13.3078 12.9169Z"
		  fill="#2B2A29"/>
</svg>
