<svg width="21" height="21" viewBox="0 0 21 21" fill="none" xmlns="http://www.w3.org/2000/svg">
	<path d="M19.71 1.28994C19.617 1.19621 19.5064 1.12182 19.3846 1.07105C19.2627 1.02028 19.132 0.994141 19 0.994141C18.868 0.994141 18.7373 1.02028 18.6154 1.07105C18.4936 1.12182 18.383 1.19621 18.29 1.28994L12.12 7.45994C12.0263 7.5529 11.9519 7.6635 11.9011 7.78536C11.8503 7.90722 11.8242 8.03793 11.8242 8.16994C11.8242 8.30195 11.8503 8.43266 11.9011 8.55452C11.9519 8.67638 12.0263 8.78698 12.12 8.87994C12.2134 8.97262 12.3243 9.04595 12.4461 9.09571C12.5679 9.14547 12.6984 9.1707 12.83 9.16994C12.9616 9.1707 13.0921 9.14547 13.2139 9.09571C13.3357 9.04595 13.4466 8.97262 13.54 8.87994L19.71 2.70994C19.8037 2.61698 19.8781 2.50637 19.9289 2.38452C19.9797 2.26266 20.0058 2.13195 20.0058 1.99994C20.0058 1.86793 19.9797 1.73722 19.9289 1.61536C19.8781 1.4935 19.8037 1.3829 19.71 1.28994V1.28994ZM7.88 7.45994C7.6917 7.27164 7.4363 7.16585 7.17 7.16585C6.9037 7.16585 6.6483 7.27164 6.46 7.45994C6.2717 7.64824 6.16591 7.90364 6.16591 8.16994C6.16591 8.43624 6.2717 8.69164 6.46 8.87994L12.12 14.5399C12.2134 14.6326 12.3243 14.7059 12.4461 14.7557C12.5679 14.8055 12.6984 14.8307 12.83 14.8299C12.9616 14.8307 13.0921 14.8055 13.2139 14.7557C13.3357 14.7059 13.4466 14.6326 13.54 14.5399C13.6337 14.447 13.7081 14.3364 13.7589 14.2145C13.8097 14.0927 13.8358 13.962 13.8358 13.8299C13.8358 13.6979 13.8097 13.5672 13.7589 13.4454C13.7081 13.3235 13.6337 13.2129 13.54 13.1199L7.88 7.45994ZM6.46 13.1199L2 17.5899V15.9999C2 15.7347 1.89464 15.4804 1.70711 15.2928C1.51957 15.1053 1.26522 14.9999 1 14.9999C0.734784 14.9999 0.48043 15.1053 0.292893 15.2928C0.105357 15.4804 0 15.7347 0 15.9999V19.9999C0.00157999 20.1306 0.028759 20.2597 0.0799999 20.3799C0.181475 20.6243 0.375651 20.8185 0.62 20.9199C0.740222 20.9712 0.869323 20.9984 1 20.9999H5C5.26522 20.9999 5.51957 20.8946 5.70711 20.707C5.89464 20.5195 6 20.2652 6 19.9999C6 19.7347 5.89464 19.4804 5.70711 19.2928C5.51957 19.1053 5.26522 18.9999 5 18.9999H3.41L7.88 14.5399C8.0683 14.3516 8.17409 14.0962 8.17409 13.8299C8.17409 13.5636 8.0683 13.3082 7.88 13.1199C7.6917 12.9316 7.4363 12.8258 7.17 12.8258C6.9037 12.8258 6.6483 12.9316 6.46 13.1199V13.1199Z"
		  fill="#294857"/>
	<path d="M19 7C18.7348 7 18.4804 6.89464 18.2929 6.70711C18.1054 6.51957 18 6.26522 18 6V3H15C14.7348 3 14.4804 2.89464 14.2929 2.70711C14.1054 2.51957 14 2.26522 14 2C14 1.73478 14.1054 1.48043 14.2929 1.29289C14.4804 1.10536 14.7348 1 15 1H19C19.2652 1 19.5196 1.10536 19.7071 1.29289C19.8946 1.48043 20 1.73478 20 2V6C20 6.26522 19.8946 6.51957 19.7071 6.70711C19.5196 6.89464 19.2652 7 19 7Z"
		  fill="#294857"/>
</svg>
