<svg width="10" height="24" viewBox="0 0 10 24" fill="none" xmlns="http://www.w3.org/2000/svg">
	<path d="M5 0.354857C4.88802 0.354397 4.77705 0.376115 4.67351 0.418757C4.56996 0.461399 4.47588 0.524121 4.3967 0.603305C4.31751 0.682489 4.25479 0.776568 4.21215 0.880115C4.1695 0.983662 4.14779 1.09463 4.14825 1.20661L4.14825 8.60846C4.14779 8.72044 4.1695 8.83141 4.21215 8.93496C4.25479 9.0385 4.31751 9.13258 4.3967 9.21177C4.47588 9.29095 4.56996 9.35367 4.67351 9.39631C4.77705 9.43896 4.88802 9.46067 5 9.46022C5.11164 9.45976 5.22209 9.43727 5.32502 9.39404C5.42795 9.35081 5.52134 9.28769 5.59983 9.20829C5.67922 9.1298 5.74235 9.03642 5.78558 8.93349C5.82881 8.83056 5.8513 8.7201 5.85175 8.60846L5.85175 1.20661C5.85221 1.09463 5.83049 0.983661 5.78785 0.880114C5.74521 0.776568 5.68249 0.682489 5.6033 0.603305C5.52412 0.524121 5.43004 0.461398 5.32649 0.418756C5.22295 0.376114 5.11198 0.354397 5 0.354857V0.354857ZM1.60498 11.1517C1.37908 11.1517 1.16244 11.2415 1.0027 11.4012C0.842969 11.5609 0.753231 11.7776 0.753231 12.0035C0.753231 12.2294 0.842969 12.446 1.0027 12.6058C1.16244 12.7655 1.37908 12.8552 1.60498 12.8552H8.39501C8.50666 12.8548 8.61711 12.8323 8.72004 12.7891C8.82297 12.7458 8.91636 12.6827 8.99484 12.6033C9.07424 12.5248 9.13736 12.4314 9.18059 12.3285C9.22382 12.2256 9.24631 12.1151 9.24677 12.0035C9.24723 11.8915 9.22551 11.7805 9.18287 11.677C9.14022 11.5734 9.0775 11.4794 8.99832 11.4002C8.91913 11.321 8.82506 11.2583 8.72151 11.2156C8.61796 11.173 8.507 11.1513 8.39501 11.1517H1.60498ZM4.14825 15.3985L4.15424 20.7549L3.20052 19.8012C3.04144 19.6421 2.82567 19.5528 2.60069 19.5528C2.37572 19.5528 2.15995 19.6421 2.00087 19.8012C1.84179 19.9603 1.75241 20.1761 1.75241 20.401C1.75241 20.626 1.84179 20.8418 2.00087 21.0009L4.40017 23.4002C4.4795 23.4776 4.57324 23.5387 4.67609 23.5801C4.88353 23.6658 5.11647 23.6658 5.32391 23.5801C5.42675 23.5387 5.52049 23.4776 5.59983 23.4002L7.99913 21.0009C8.15821 20.8418 8.24759 20.626 8.24759 20.401C8.24759 20.1761 8.15821 19.9603 7.99913 19.8012C7.84005 19.6421 7.62428 19.5528 7.3993 19.5528C7.17432 19.5528 6.95856 19.6421 6.79948 19.8012L5.84575 20.7549L5.85175 15.3985C5.85175 15.1726 5.76201 14.9559 5.60228 14.7962C5.44254 14.6365 5.2259 14.5467 5 14.5467C4.7741 14.5467 4.55745 14.6365 4.39772 14.7962C4.23798 14.9559 4.14825 15.1726 4.14825 15.3985V15.3985Z"
		  fill="#294857"/>
	<path d="M8.00043 4.2053C7.84135 4.36438 7.62558 4.45375 7.4006 4.45375C7.17562 4.45375 6.95986 4.36438 6.80078 4.2053L5.0013 2.40582L3.20182 4.2053C3.04274 4.36438 2.82697 4.45375 2.602 4.45375C2.37702 4.45375 2.16125 4.36438 2.00217 4.2053C1.84309 4.04621 1.75371 3.83045 1.75371 3.60547C1.75371 3.38049 1.84309 3.16473 2.00217 3.00564L4.40147 0.606337C4.56056 0.447253 4.77632 0.35788 5.0013 0.35788C5.22628 0.35788 5.44204 0.447253 5.60113 0.606337L8.00043 3.00564C8.15951 3.16473 8.24889 3.38049 8.24889 3.60547C8.24889 3.83045 8.15951 4.04621 8.00043 4.2053Z"
		  fill="#294857"/>
</svg>
