<svg width="19" height="19" viewBox="0 0 19 19" fill="none" xmlns="http://www.w3.org/2000/svg">
<path d="M6.25375 8.87875C6.17409 8.96197 6.11165 9.06009 6.07 9.1675C5.98248 9.38053 5.98248 9.61947 6.07 9.8325C6.11165 9.93991 6.17409 10.038 6.25375 10.1213L8.87875 12.7463C9.04352 12.911 9.26699 13.0036 9.5 13.0036C9.73301 13.0036 9.95648 12.911 10.1213 12.7463C10.286 12.5815 10.3786 12.358 10.3786 12.125C10.3786 11.892 10.286 11.6685 10.1213 11.5038L8.98375 10.375H12.125C12.3571 10.375 12.5796 10.2828 12.7437 10.1187C12.9078 9.95462 13 9.73207 13 9.5C13 9.26794 12.9078 9.04538 12.7437 8.88128C12.5796 8.71719 12.3571 8.625 12.125 8.625H8.98375L10.1213 7.49625C10.2033 7.41491 10.2684 7.31813 10.3128 7.2115C10.3572 7.10488 10.3801 6.99051 10.3801 6.875C10.3801 6.75949 10.3572 6.64512 10.3128 6.5385C10.2684 6.43187 10.2033 6.33509 10.1213 6.25375C10.0399 6.17174 9.94313 6.10664 9.8365 6.06222C9.72988 6.0178 9.61551 5.99493 9.5 5.99493C9.38449 5.99493 9.27012 6.0178 9.1635 6.06222C9.05687 6.10664 8.96009 6.17174 8.87875 6.25375L6.25375 8.87875ZM0.75 9.5C0.75 11.2306 1.26318 12.9223 2.22464 14.3612C3.1861 15.8002 4.55267 16.9217 6.15152 17.5839C7.75037 18.2462 9.50971 18.4195 11.207 18.0819C12.9044 17.7443 14.4635 16.9109 15.6872 15.6872C16.9109 14.4635 17.7443 12.9044 18.0819 11.207C18.4195 9.50971 18.2462 7.75037 17.5839 6.15152C16.9217 4.55267 15.8002 3.1861 14.3612 2.22464C12.9223 1.26318 11.2306 0.75 9.5 0.75C8.35093 0.75 7.21312 0.976325 6.15152 1.41605C5.08992 1.85578 4.12533 2.5003 3.31282 3.31282C1.67187 4.95376 0.75 7.17936 0.75 9.5ZM16.5 9.5C16.5 10.8845 16.0895 12.2378 15.3203 13.389C14.5511 14.5401 13.4579 15.4373 12.1788 15.9672C10.8997 16.497 9.49224 16.6356 8.13437 16.3655C6.7765 16.0954 5.52922 15.4287 4.55025 14.4497C3.57129 13.4708 2.9046 12.2235 2.6345 10.8656C2.36441 9.50777 2.50303 8.1003 3.03284 6.82122C3.56266 5.54213 4.45986 4.44888 5.61101 3.67971C6.76215 2.91054 8.11553 2.5 9.5 2.5C11.3565 2.5 13.137 3.2375 14.4497 4.55025C15.7625 5.86301 16.5 7.64349 16.5 9.5Z" fill="#294857"/>
</svg>
