<svg width="20" height="20" viewBox="0 0 20 20" fill="none" xmlns="http://www.w3.org/2000/svg">
<path d="M13.82 17.9999L19 17.9999C19.2652 17.9999 19.5196 17.8946 19.7071 17.707C19.8946 17.5195 20 17.2651 20 16.9999C20 16.7347 19.8946 16.4803 19.7071 16.2928C19.5196 16.1053 19.2652 15.9999 19 15.9999L13.82 15.9999C13.6098 15.4208 13.2264 14.9204 12.7218 14.5668C12.2173 14.2131 11.6161 14.0234 11 14.0234C10.3839 14.0234 9.7827 14.2131 9.27816 14.5668C8.77363 14.9204 8.3902 15.4208 8.18 15.9999L0.999999 15.9999C0.734782 15.9999 0.480428 16.1053 0.292892 16.2928C0.105355 16.4803 -7.30472e-07 16.7347 -7.42065e-07 16.9999C-7.53658e-07 17.2651 0.105355 17.5195 0.292892 17.707C0.480428 17.8946 0.734782 17.9999 0.999999 17.9999L8.18 17.9999C8.3902 18.5791 8.77363 19.0795 9.27816 19.4331C9.7827 19.7867 10.3839 19.9764 11 19.9764C11.6161 19.9764 12.2173 19.7867 12.7218 19.4331C13.2264 19.0795 13.6098 18.5791 13.82 17.9999ZM10 16.9999C10 16.8021 10.0586 16.6088 10.1685 16.4443C10.2784 16.2799 10.4346 16.1517 10.6173 16.076C10.8 16.0003 11.0011 15.9805 11.1951 16.0191C11.3891 16.0577 11.5673 16.153 11.7071 16.2928C11.847 16.4327 11.9422 16.6108 11.9808 16.8048C12.0194 16.9988 11.9996 17.1999 11.9239 17.3826C11.8482 17.5653 11.72 17.7215 11.5556 17.8314C11.3911 17.9413 11.1978 17.9999 11 17.9999C10.7348 17.9999 10.4804 17.8946 10.2929 17.707C10.1054 17.5195 10 17.2651 10 16.9999ZM7.82 10.9999L19 10.9999C19.2652 10.9999 19.5196 10.8946 19.7071 10.707C19.8946 10.5195 20 10.2651 20 9.99991C20 9.7347 19.8946 9.48034 19.7071 9.29281C19.5196 9.10527 19.2652 8.99991 19 8.99991L7.82 8.99991C7.6098 8.42076 7.22637 7.92037 6.72183 7.56676C6.2173 7.21314 5.61612 7.02344 5 7.02344C4.38388 7.02344 3.7827 7.21314 3.27817 7.56676C2.77363 7.92037 2.39021 8.42076 2.18 8.99991L1 8.99991C0.734783 8.99991 0.480428 9.10527 0.292892 9.29281C0.105356 9.48034 -4.24493e-07 9.7347 -4.36086e-07 9.99991C-4.47679e-07 10.2651 0.105356 10.5195 0.292892 10.707C0.480428 10.8946 0.734783 10.9999 1 10.9999L2.18 10.9999C2.3902 11.5791 2.77363 12.0795 3.27817 12.4331C3.7827 12.7867 4.38388 12.9764 5 12.9764C5.61612 12.9764 6.2173 12.7867 6.72183 12.4331C7.22637 12.0795 7.6098 11.5791 7.82 10.9999ZM4 9.99991C4 9.80213 4.05865 9.60879 4.16853 9.44434C4.27841 9.27989 4.43459 9.15172 4.61732 9.07603C4.80004 9.00035 5.00111 8.98054 5.19509 9.01913C5.38907 9.05771 5.56725 9.15295 5.70711 9.29281C5.84696 9.43266 5.9422 9.61084 5.98078 9.80482C6.01937 9.9988 5.99957 10.1999 5.92388 10.3826C5.84819 10.5653 5.72002 10.7215 5.55557 10.8314C5.39112 10.9413 5.19778 10.9999 5 10.9999C4.73478 10.9999 4.48043 10.8946 4.29289 10.707C4.10536 10.5195 4 10.2651 4 9.99991ZM15.82 3.99991L19 3.99991C19.2652 3.99991 19.5196 3.89456 19.7071 3.70702C19.8946 3.51948 20 3.26513 20 2.99991C20 2.7347 19.8946 2.48034 19.7071 2.29281C19.5196 2.10527 19.2652 1.99991 19 1.99991L15.82 1.99991C15.6098 1.42076 15.2264 0.920374 14.7218 0.566756C14.2173 0.213137 13.6161 0.0234372 13 0.0234372C12.3839 0.0234372 11.7827 0.213137 11.2782 0.566755C10.7736 0.920374 10.3902 1.42076 10.18 1.99991L1 1.99991C0.734783 1.99991 0.480429 2.10527 0.292892 2.29281C0.105356 2.48034 -1.18513e-07 2.7347 -1.30106e-07 2.99991C-1.41699e-07 3.26513 0.105356 3.51948 0.292892 3.70702C0.480429 3.89456 0.734783 3.99991 1 3.99991L10.18 3.99991C10.3902 4.57907 10.7736 5.07945 11.2782 5.43307C11.7827 5.78669 12.3839 5.97639 13 5.97639C13.6161 5.97639 14.2173 5.78669 14.7218 5.43307C15.2264 5.07945 15.6098 4.57907 15.82 3.99991ZM12 2.99991C12 2.80213 12.0586 2.60879 12.1685 2.44434C12.2784 2.27989 12.4346 2.15172 12.6173 2.07603C12.8 2.00035 13.0011 1.98054 13.1951 2.01913C13.3891 2.05771 13.5673 2.15295 13.7071 2.29281C13.847 2.43266 13.9422 2.61084 13.9808 2.80482C14.0194 2.9988 13.9996 3.19987 13.9239 3.3826C13.8482 3.56532 13.72 3.7215 13.5556 3.83138C13.3911 3.94126 13.1978 3.99991 13 3.99991C12.7348 3.99991 12.4804 3.89456 12.2929 3.70702C12.1054 3.51948 12 3.26513 12 2.99991Z" fill="#294857"/>
</svg>
