<svg width="20" height="20" viewBox="0 0 20 20" fill="none" xmlns="http://www.w3.org/2000/svg">
	<circle cx="10" cy="10" r="9.5" stroke="#2B2A29"/>
	<path d="M15.227 8.13362C15.227 8.13362 15.227 8.13362 15.227 8.10584C14.8356 7.03708 14.1253 6.11433 13.1923 5.46243C12.2593 4.81053 11.1485 4.46094 10.0104 4.46094C8.87216 4.46094 7.76143 4.81053 6.82841 5.46243C5.8954 6.11433 5.18513 7.03708 4.79369 8.10584C4.79369 8.10584 4.79369 8.10584 4.79369 8.13362C4.35653 9.33967 4.35653 10.6609 4.79369 11.867C4.79369 11.867 4.79369 11.867 4.79369 11.8947C5.18513 12.9635 5.8954 13.8862 6.82841 14.5381C7.76143 15.19 8.87216 15.5396 10.0104 15.5396C11.1485 15.5396 12.2593 15.19 13.1923 14.5381C14.1253 13.8862 14.8356 12.9635 15.227 11.8947C15.227 11.8947 15.227 11.8947 15.227 11.867C15.6642 10.6609 15.6642 9.33967 15.227 8.13362ZM5.69924 11.1114C5.50659 10.3832 5.50659 9.61739 5.69924 8.88918H6.73257C6.6437 9.62725 6.6437 10.3733 6.73257 11.1114H5.69924ZM6.1548 12.2225H6.93257C7.06297 12.718 7.24936 13.197 7.48813 13.6503C6.9433 13.2791 6.48785 12.7914 6.1548 12.2225ZM6.93257 7.77806H6.1548C6.48306 7.21089 6.93268 6.72332 7.47146 6.35029C7.23844 6.80431 7.05765 7.2833 6.93257 7.77806ZM9.44369 14.2781C8.76133 13.7773 8.2821 13.0476 8.09368 12.2225H9.44369V14.2781ZM9.44369 11.1114H7.8548C7.75112 10.3743 7.75112 9.62629 7.8548 8.88918H9.44369V11.1114ZM9.44369 7.77806H8.09368C8.2821 6.95294 8.76133 6.22324 9.44369 5.72251V7.77806ZM13.8437 7.77806H13.0659C12.9355 7.2826 12.7491 6.80359 12.5104 6.35029C13.0552 6.72144 13.5106 7.20914 13.8437 7.77806ZM10.5548 5.72251C11.2371 6.22324 11.7164 6.95294 11.9048 7.77806H10.5548V5.72251ZM10.5548 14.2781V12.2225H11.9048C11.7164 13.0476 11.2371 13.7773 10.5548 14.2781ZM12.1437 11.1114H10.5548V8.88918H12.1437C12.2474 9.62629 12.2474 10.3743 12.1437 11.1114ZM12.527 13.6503C12.7658 13.197 12.9522 12.718 13.0826 12.2225H13.8604C13.5273 12.7914 13.0719 13.2791 12.527 13.6503ZM14.2992 11.1114H13.2659C13.3111 10.7428 13.3334 10.3717 13.3326 10.0003C13.3332 9.6289 13.3109 9.25783 13.2659 8.88918H14.2992C14.4919 9.61739 14.4919 10.3832 14.2992 11.1114Z"
		  fill="#2B2A29"/>
</svg>
