<svg width="30" height="30" viewBox="0 0 30 30" fill="none" xmlns="http://www.w3.org/2000/svg">
<path d="M28.4563 20.9753H7.4885C7.09128 20.9753 6.71034 20.8175 6.42946 20.5365C6.14859 20.2555 5.9908 19.8744 5.9908 19.4771C5.9908 19.0797 6.14859 18.6987 6.42946 18.4177C6.71034 18.1367 7.09128 17.9789 7.4885 17.9789H23.1245C24.1259 17.9789 25.0987 17.6443 25.8883 17.0281C26.6779 16.4119 27.2391 15.5495 27.4828 14.5779L29.954 4.85429C30.0101 4.63316 30.015 4.40214 29.9682 4.17884C29.9215 3.95554 29.8244 3.74587 29.6844 3.56581C29.5387 3.38112 29.3517 3.23334 29.1383 3.13443C28.9249 3.03552 28.6913 2.98826 28.4563 2.99648H7.12905C6.82005 2.12218 6.2483 1.36489 5.49216 0.828433C4.73603 0.291974 3.83253 0.0026062 2.90554 0H1.4977C1.10048 0 0.719539 0.15785 0.438666 0.438824C0.157793 0.719798 0 1.10088 0 1.49824C0 1.8956 0.157793 2.27668 0.438666 2.55765C0.719539 2.83863 1.10048 2.99648 1.4977 2.99648H2.90554C3.24766 2.9865 3.58288 3.09406 3.85539 3.30124C4.12789 3.50841 4.32124 3.80271 4.40324 4.13514L4.4931 4.85429L7.08412 14.9824C5.89247 15.036 4.77094 15.561 3.96624 16.4419C3.16154 17.3227 2.73959 18.4873 2.79321 19.6794C2.84683 20.8714 3.37164 21.9934 4.25218 22.7984C5.13271 23.6033 6.29685 24.0254 7.4885 23.9718H7.75808C7.51176 24.6507 7.43261 25.379 7.52733 26.095C7.62205 26.811 7.88785 27.4936 8.30222 28.085C8.7166 28.6764 9.26734 29.1593 9.90781 29.4926C10.5483 29.826 11.2596 30 11.9816 30C12.7036 30 13.4149 29.826 14.0554 29.4926C14.6959 29.1593 15.2466 28.6764 15.661 28.085C16.0753 27.4936 16.3411 26.811 16.4359 26.095C16.5306 25.379 16.4514 24.6507 16.2051 23.9718H19.7397C19.4934 24.6507 19.4142 25.379 19.5089 26.095C19.6036 26.811 19.8694 27.4936 20.2838 28.085C20.6982 28.6764 21.2489 29.1593 21.8894 29.4926C22.5299 29.826 23.2412 30 23.9632 30C24.6852 30 25.3965 29.826 26.037 29.4926C26.6774 29.1593 27.2282 28.6764 27.6426 28.085C28.0569 27.4936 28.3227 26.811 28.4175 26.095C28.5122 25.379 28.433 24.6507 28.1867 23.9718H28.4563C28.8535 23.9718 29.2344 23.814 29.5153 23.533C29.7962 23.252 29.954 22.8709 29.954 22.4736C29.954 22.0762 29.7962 21.6951 29.5153 21.4142C29.2344 21.1332 28.8535 20.9753 28.4563 20.9753ZM26.5392 5.99295L24.5772 13.8437C24.4952 14.1761 24.3019 14.4704 24.0294 14.6776C23.7569 14.8848 23.4217 14.9923 23.0795 14.9824H10.1544L7.90785 5.99295H26.5392ZM11.9816 26.9683C11.6854 26.9683 11.3958 26.8804 11.1495 26.7158C10.9032 26.5512 10.7113 26.3172 10.5979 26.0434C10.4845 25.7696 10.4549 25.4684 10.5127 25.1777C10.5705 24.8871 10.7131 24.6202 10.9226 24.4106C11.132 24.2011 11.3989 24.0584 11.6894 24.0006C11.9799 23.9428 12.2811 23.9725 12.5547 24.0859C12.8284 24.1992 13.0623 24.3913 13.2269 24.6377C13.3915 24.8841 13.4793 25.1737 13.4793 25.47C13.4793 25.8674 13.3215 26.2485 13.0406 26.5295C12.7598 26.8104 12.3788 26.9683 11.9816 26.9683ZM23.9632 26.9683C23.667 26.9683 23.3774 26.8804 23.1311 26.7158C22.8848 26.5512 22.6929 26.3172 22.5795 26.0434C22.4661 25.7696 22.4365 25.4684 22.4943 25.1777C22.5521 24.8871 22.6947 24.6202 22.9042 24.4106C23.1136 24.2011 23.3805 24.0584 23.671 24.0006C23.9615 23.9428 24.2627 23.9725 24.5363 24.0859C24.81 24.1992 25.0439 24.3913 25.2085 24.6377C25.3731 24.8841 25.4609 25.1737 25.4609 25.47C25.4609 25.8674 25.3031 26.2485 25.0222 26.5295C24.7414 26.8104 24.3604 26.9683 23.9632 26.9683Z" fill="white"/>
</svg>
