<svg width="187" height="50" viewBox="0 0 187 50" fill="none" xmlns="http://www.w3.org/2000/svg">
<path d="M7.78425 46.9644H0.00191357V38.6661H1.08088V45.9576H5.9171V38.6661H6.99607V45.9576H8.79435V48.2763H7.78425V46.9644Z" fill="white"/>
<path d="M17.2501 44.211L18.1531 44.6839C17.8572 45.2636 17.5154 45.7314 17.1277 46.0873C16.7399 46.4432 16.3038 46.7153 15.8191 46.9034C15.3345 47.0864 14.7861 47.178 14.1739 47.178C12.8169 47.178 11.7558 46.7356 10.9905 45.8508C10.2253 44.961 9.84271 43.9568 9.84271 42.8381C9.84271 41.7856 10.1667 40.8475 10.8145 40.0237C11.6359 38.9763 12.7353 38.4525 14.1127 38.4525C15.5309 38.4525 16.6634 38.989 17.5103 40.0619C18.1122 40.8195 18.4183 41.7653 18.4285 42.8992H10.9446C10.965 43.8653 11.2737 44.6585 11.8706 45.2788C12.4674 45.8941 13.2046 46.2017 14.0821 46.2017C14.5055 46.2017 14.9162 46.128 15.3141 45.9805C15.7171 45.8331 16.0589 45.6373 16.3395 45.3932C16.6201 45.1492 16.9236 44.7551 17.2501 44.211ZM17.2501 41.9763C17.1072 41.4068 16.8981 40.9517 16.6226 40.611C16.3522 40.2703 15.9926 39.9958 15.5436 39.7873C15.0947 39.5788 14.6228 39.4746 14.128 39.4746C13.3117 39.4746 12.6103 39.7364 12.0236 40.2602C11.5951 40.6415 11.2711 41.2136 11.0518 41.9763H17.2501Z" fill="white"/>
<path d="M26.3486 42.9678H21.5124V46.9644H20.4334V38.6661H21.5124V41.961H26.3486V38.6661H27.4199V46.9644H26.3486V42.9678Z" fill="white"/>
<path d="M28.8815 38.6661H34.3605V39.589H32.1567V46.9644H31.0777V39.589H28.8815V38.6661Z" fill="white"/>
<path d="M35.8298 38.6661H36.8934V40.1915C37.3168 39.6119 37.804 39.1771 38.355 38.8873C38.906 38.5975 39.5207 38.4525 40.1992 38.4525C41.3827 38.4525 42.3954 38.8771 43.2371 39.7263C44.0789 40.5754 44.4998 41.5975 44.4998 42.7924C44.4998 44.0127 44.0814 45.05 43.2448 45.9042C42.4132 46.7534 41.4082 47.178 40.2298 47.178C39.5666 47.178 38.957 47.0407 38.4009 46.7661C37.8448 46.4915 37.3424 46.0822 36.8934 45.5381V50H35.8298V38.6661ZM40.115 39.4822C39.1865 39.4822 38.4035 39.8051 37.7658 40.4509C37.1332 41.0966 36.8169 41.9 36.8169 42.861C36.8169 43.4915 36.9572 44.0585 37.2378 44.5619C37.5235 45.0653 37.929 45.4644 38.4545 45.7593C38.985 46.0542 39.5437 46.2017 40.1303 46.2017C40.7068 46.2017 41.2476 46.0542 41.7526 45.7593C42.2627 45.4593 42.6683 45.0424 42.9693 44.5085C43.2703 43.9746 43.4208 43.4153 43.4208 42.8305C43.4208 42.2407 43.2703 41.6814 42.9693 41.1525C42.6734 40.6237 42.273 40.2144 41.7679 39.9246C41.2629 39.6297 40.7119 39.4822 40.115 39.4822Z" fill="white"/>
<path d="M59.8961 38.6661H60.2022L63.0259 46.9644H61.9086L59.8502 40.8551L56.6515 46.9644H56.4526L53.2463 40.8551L51.1955 46.9644H50.0782L52.9172 38.6661H53.208L56.5597 45.1568L59.8961 38.6661Z" fill="white"/>
<path d="M71.6423 44.211L72.5453 44.6839C72.2494 45.2636 71.9076 45.7314 71.5199 46.0873C71.1321 46.4432 70.696 46.7153 70.2113 46.9034C69.7267 47.0864 69.1783 47.178 68.5661 47.178C67.2091 47.178 66.148 46.7356 65.3828 45.8508C64.6175 44.961 64.2349 43.9568 64.2349 42.8381C64.2349 41.7856 64.5589 40.8475 65.2067 40.0237C66.0281 38.9763 67.1275 38.4525 68.5049 38.4525C69.9231 38.4525 71.0556 38.989 71.9025 40.0619C72.5044 40.8195 72.8105 41.7653 72.8207 42.8992H65.3368C65.3572 43.8653 65.6659 44.6585 66.2628 45.2788C66.8596 45.8941 67.5968 46.2017 68.4743 46.2017C68.8977 46.2017 69.3084 46.128 69.7063 45.9805C70.1093 45.8331 70.4511 45.6373 70.7317 45.3932C71.0123 45.1492 71.3158 44.7551 71.6423 44.211ZM71.6423 41.9763C71.4995 41.4068 71.2903 40.9517 71.0148 40.611C70.7444 40.2703 70.3848 39.9958 69.9358 39.7873C69.4869 39.5788 69.015 39.4746 68.5202 39.4746C67.7039 39.4746 67.0025 39.7364 66.4158 40.2602C65.9873 40.6415 65.6633 41.2136 65.444 41.9763H71.6423Z" fill="white"/>
<path d="M82.7916 35.2873V36.3093C82.2815 36.3958 81.4066 36.4568 80.1669 36.4924C79.269 36.5229 78.5752 36.5839 78.0855 36.6754C77.6008 36.7619 77.1774 36.9322 76.8152 37.1864C76.453 37.4356 76.1469 37.817 75.8969 38.3305C75.6521 38.839 75.499 39.4085 75.4378 40.039L75.3307 41.2059C75.6215 40.2551 76.0985 39.5585 76.7617 39.1161C77.4299 38.6737 78.1697 38.4525 78.9808 38.4525C80.2154 38.4525 81.2459 38.8847 82.0723 39.7492C82.9039 40.6136 83.3196 41.6432 83.3196 42.8381C83.3196 44.0229 82.9064 45.0424 82.08 45.8966C81.2535 46.7508 80.2205 47.178 78.9808 47.178C77.7105 47.178 76.6341 46.7051 75.7516 45.7593C74.869 44.8136 74.4277 43.3237 74.4277 41.2898C74.4277 39.8712 74.5884 38.7983 74.9098 38.0712C75.2363 37.339 75.6087 36.8127 76.027 36.4924C76.4454 36.172 76.9861 35.9203 77.6493 35.7373C78.3125 35.5542 79.5547 35.4398 81.376 35.3941C81.9371 35.3788 82.409 35.3432 82.7916 35.2873ZM82.233 42.861C82.233 41.9407 81.9116 41.15 81.2688 40.489C80.626 39.828 79.8634 39.4975 78.9808 39.4975C78.1033 39.4975 77.3432 39.828 76.7004 40.489C76.0576 41.15 75.7363 41.9407 75.7363 42.861C75.7363 43.7763 76.0449 44.5568 76.6622 45.2025C77.2846 45.8432 78.0574 46.1636 78.9808 46.1636C79.9093 46.1636 80.6822 45.8432 81.2994 45.2025C81.9218 44.5568 82.233 43.7763 82.233 42.861Z" fill="white"/>
<path d="M92.3187 44.211L93.2217 44.6839C92.9258 45.2636 92.584 45.7314 92.1962 46.0873C91.8085 46.4432 91.3724 46.7153 90.8877 46.9034C90.4031 47.0864 89.8547 47.178 89.2425 47.178C87.8855 47.178 86.8244 46.7356 86.0591 45.8508C85.2939 44.961 84.9113 43.9568 84.9113 42.8381C84.9113 41.7856 85.2352 40.8475 85.8831 40.0237C86.7045 38.9763 87.8039 38.4525 89.1813 38.4525C90.5995 38.4525 91.732 38.989 92.5789 40.0619C93.1808 40.8195 93.4869 41.7653 93.4971 42.8992H86.0132C86.0336 43.8653 86.3423 44.6585 86.9392 45.2788C87.536 45.8941 88.2732 46.2017 89.1507 46.2017C89.5741 46.2017 89.9847 46.128 90.3827 45.9805C90.7857 45.8331 91.1275 45.6373 91.4081 45.3932C91.6887 45.1492 91.9922 44.7551 92.3187 44.211ZM92.3187 41.9763C92.1758 41.4068 91.9667 40.9517 91.6912 40.611C91.4208 40.2703 91.0612 39.9958 90.6122 39.7873C90.1633 39.5788 89.6914 39.4746 89.1966 39.4746C88.3803 39.4746 87.6789 39.7364 87.0922 40.2602C86.6637 40.6415 86.3397 41.2136 86.1204 41.9763H92.3187Z" fill="white"/>
<path d="M102.55 46.9644H101.41L98.6241 40.9237L95.8617 46.9644H94.7138L98.5247 38.6661H98.716L102.55 46.9644Z" fill="white"/>
<path d="M105.259 41.9534H106.276C107.088 41.9534 107.723 42.0169 108.182 42.1441C108.641 42.2712 109.036 42.5534 109.368 42.9907C109.699 43.4229 109.865 43.9212 109.865 44.4856C109.865 45.167 109.626 45.7517 109.146 46.2398C108.666 46.7229 107.939 46.9644 106.965 46.9644H104.195V38.6661H105.259V41.9534ZM105.297 42.9297V46.0644H106.529C107.978 46.0644 108.702 45.5559 108.702 44.539C108.702 44.2491 108.623 43.9644 108.465 43.6847C108.312 43.4051 108.085 43.2093 107.784 43.0975C107.488 42.9856 106.963 42.9297 106.208 42.9297H105.297Z" fill="white"/>
<path d="M117.502 42.9678H112.666V46.9644H111.587V38.6661H112.666V41.961H117.502V38.6661H118.574V46.9644H117.502V42.9678Z" fill="white"/>
<path d="M124.91 38.4525C126.19 38.4525 127.251 38.9153 128.093 39.8407C128.858 40.6847 129.241 41.6839 129.241 42.8381C129.241 43.9975 128.835 45.0119 128.024 45.8814C127.218 46.7458 126.18 47.178 124.91 47.178C123.634 47.178 122.591 46.7458 121.78 45.8814C120.974 45.0119 120.571 43.9975 120.571 42.8381C120.571 41.689 120.953 40.6924 121.719 39.8483C122.56 38.9178 123.624 38.4525 124.91 38.4525ZM124.91 39.4975C124.022 39.4975 123.259 39.8254 122.622 40.4814C121.984 41.1373 121.665 41.9305 121.665 42.861C121.665 43.461 121.81 44.0203 122.101 44.539C122.392 45.0576 122.785 45.4593 123.28 45.7441C123.775 46.0237 124.318 46.1636 124.91 46.1636C125.501 46.1636 126.045 46.0237 126.54 45.7441C127.034 45.4593 127.427 45.0576 127.718 44.539C128.009 44.0203 128.154 43.461 128.154 42.861C128.154 41.9305 127.833 41.1373 127.19 40.4814C126.552 39.8254 125.792 39.4975 124.91 39.4975Z" fill="white"/>
<path d="M132.309 38.6661V44.8059L138.423 38.6661H138.508V46.9644H137.436V40.878L131.368 46.9644H131.238V38.6661H132.309ZM132.164 35.3331H133.174C133.348 35.5975 133.58 35.7958 133.87 35.928C134.161 36.0602 134.508 36.1263 134.911 36.1263C135.319 36.1263 135.648 36.0678 135.898 35.9509C136.148 35.8339 136.385 35.628 136.61 35.3331H137.589C137.477 35.7907 137.189 36.1746 136.725 36.4847C136.266 36.7898 135.658 36.9424 134.903 36.9424C134.154 36.9424 133.541 36.7924 133.067 36.4924C132.592 36.1873 132.291 35.8009 132.164 35.3331Z" fill="white"/>
<path d="M154.279 38.6661H154.585L157.409 46.9644H156.292L154.233 40.8551L151.034 46.9644H150.835L147.629 40.8551L145.578 46.9644H144.461L147.3 38.6661H147.591L150.943 45.1568L154.279 38.6661Z" fill="white"/>
<path d="M162.957 38.4525C164.237 38.4525 165.298 38.9153 166.14 39.8407C166.905 40.6847 167.288 41.6839 167.288 42.8381C167.288 43.9975 166.882 45.0119 166.071 45.8814C165.265 46.7458 164.227 47.178 162.957 47.178C161.681 47.178 160.638 46.7458 159.827 45.8814C159.021 45.0119 158.618 43.9975 158.618 42.8381C158.618 41.689 159 40.6924 159.766 39.8483C160.607 38.9178 161.671 38.4525 162.957 38.4525ZM162.957 39.4975C162.069 39.4975 161.306 39.8254 160.669 40.4814C160.031 41.1373 159.712 41.9305 159.712 42.861C159.712 43.461 159.857 44.0203 160.148 44.539C160.439 45.0576 160.832 45.4593 161.327 45.7441C161.822 46.0237 162.365 46.1636 162.957 46.1636C163.548 46.1636 164.092 46.0237 164.587 45.7441C165.081 45.4593 165.474 45.0576 165.765 44.539C166.056 44.0203 166.201 43.461 166.201 42.861C166.201 41.9305 165.88 41.1373 165.237 40.4814C164.599 39.8254 163.839 39.4975 162.957 39.4975Z" fill="white"/>
<path d="M169.354 46.0568L172.568 38.6661H173.126L176.317 46.0568H177.32V48.0246H176.287V46.9644H169.4V48.0703H168.344V46.0568H169.354ZM172.828 40.3136L170.395 46.0568H175.162L172.828 40.3136Z" fill="white"/>
<path d="M179.837 41.9534H180.855C181.666 41.9534 182.301 42.0169 182.761 42.1441C183.22 42.2712 183.615 42.5534 183.947 42.9907C184.278 43.4229 184.444 43.9212 184.444 44.4856C184.444 45.167 184.204 45.7517 183.725 46.2398C183.245 46.7229 182.518 46.9644 181.544 46.9644H178.774V38.6661H179.837V41.9534ZM179.876 42.9297V46.0644H181.108C182.557 46.0644 183.281 45.5559 183.281 44.539C183.281 44.2491 183.202 43.9644 183.044 43.6847C182.891 43.4051 182.664 43.2093 182.363 43.0975C182.067 42.9856 181.541 42.9297 180.786 42.9297H179.876ZM185.921 38.6661H187V46.9644H185.921V38.6661Z" fill="white"/>
<path fill-rule="evenodd" clip-rule="evenodd" d="M136.791 0C147.587 0 153.822 7.68854 153.822 17.1727C153.822 26.657 147.587 34.3456 136.791 34.3456C125.996 34.3456 119.76 26.657 119.76 17.1727C119.76 7.68854 125.996 0 136.791 0ZM136.791 4.84496C143.673 4.84496 146.737 10.3643 146.737 17.1727C146.737 23.9812 143.673 29.5006 136.791 29.5006C129.909 29.5006 126.846 23.9812 126.846 17.1727C126.846 10.3643 129.909 4.84496 136.791 4.84496ZM10.408 0C21.2033 0 27.4391 7.68854 27.4391 17.1727C27.4391 26.657 21.2033 34.3456 10.408 34.3456C6.84457 34.3456 3.77806 33.5075 1.26865 32.044L0 23.7973C1.76391 27.2266 5.01566 29.5006 9.42406 29.5006C16.5639 29.5006 19.9631 25.1981 20.3213 18.4056H9.37583C7.32457 18.4056 5.4532 19.1726 4.0338 20.4341L5.08217 13.6203C6.50404 13.8144 7.94159 13.9004 9.37583 13.9004H20.1099C19.2147 8.29763 15.8202 4.84496 9.42406 4.84496C5.41967 4.84496 2.37007 6.72141 0.522605 9.6354L1.68696 2.06575C4.11625 0.748255 7.04025 0 10.408 0ZM54.8552 9.02863L54.1792 0.635941C52.7572 0.842077 51.3198 0.933297 49.8856 0.933297H33.9819C32.5477 0.933297 31.1103 0.842077 29.6883 0.635941L29.0123 9.02863C30.0824 7.30421 31.9307 5.71799 33.9819 5.71799H38.6931V28.0671C38.6931 30.1116 37.644 31.9767 35.9187 33.3915H47.9488C46.2235 31.9767 45.1744 30.1116 45.1744 28.0671V5.71799H49.8856C51.9368 5.71799 53.7851 7.30421 54.8552 9.02863ZM75.3147 33.3915H85.7719C84.0466 31.9767 82.8057 29.9977 82.1309 28.0671L74.2851 5.62046C73.7561 4.1067 74.1017 2.19134 75.3639 0.933297H63.4417C64.7039 2.19134 65.0495 4.1067 64.5204 5.62046L56.6746 28.0671C55.9999 29.9977 54.759 31.9767 53.0337 33.3915H63.4909C62.5935 31.8422 62.86 30.0208 63.4596 28.0671L63.9407 26.4994H74.8649L75.346 28.0671C75.9456 30.0208 76.212 31.8422 75.3147 33.3915ZM65.3223 21.9973L69.4028 8.701L73.4833 21.9973H65.3223ZM109.491 33.3915H119.948C118.223 31.9767 116.982 29.9977 116.307 28.0671L108.462 5.62046C107.932 4.1067 108.278 2.19134 109.54 0.933297H97.6181C98.8803 2.19134 99.226 4.1067 98.6969 5.62046L90.851 28.0671C90.1763 29.9977 88.9354 31.9767 87.2101 33.3915H97.6674C96.7701 31.8422 97.0366 30.0206 97.6359 28.0671L103.579 8.701L109.522 28.0671C110.122 30.0208 110.388 31.8422 109.491 33.3915ZM184.116 28.0671C184.116 30.1116 185.165 31.9767 186.89 33.3915H174.86C176.585 31.9767 177.634 30.1116 177.634 28.0671V18.2539H165.881V28.0671C165.881 30.1116 166.93 31.9767 168.656 33.3915H156.625C158.351 31.9767 159.4 30.1116 159.4 28.0671V6.25764C159.4 4.21326 158.351 2.34804 156.625 0.933297H168.656C166.93 2.34804 165.881 4.21326 165.881 6.25764V13.7518H177.634V6.25764C177.634 4.21326 176.585 2.34804 174.86 0.933297H186.89C185.165 2.34804 184.116 4.21326 184.116 6.25764V28.0671Z" fill="white"/>
</svg>
