<svg width="30" height="30" viewBox="0 0 30 30" fill="none" xmlns="http://www.w3.org/2000/svg">
<circle cx="15" cy="15" r="14" stroke="#294857" stroke-width="2"/>
<path d="M23.2566 13.0888C23.2937 12.0153 23.0589 10.9498 22.5741 9.99126C22.2452 9.59796 21.7887 9.33254 21.2841 9.24126C19.1973 9.05191 17.1018 8.9743 15.0066 9.00876C12.9191 8.97273 10.8311 9.04784 8.75161 9.23376C8.34048 9.30855 7.96 9.50139 7.65661 9.78876C6.98161 10.4113 6.90661 11.4763 6.83161 12.3763C6.7228 13.9944 6.7228 15.6181 6.83161 17.2363C6.85331 17.7428 6.92873 18.2456 7.05661 18.7363C7.14704 19.1151 7.33 19.4655 7.58911 19.7563C7.89456 20.0589 8.2839 20.2627 8.70661 20.3413C10.3235 20.5408 11.9528 20.6236 13.5816 20.5888C16.2066 20.6263 18.5091 20.5888 21.2316 20.3788C21.6647 20.305 22.065 20.1009 22.3791 19.7938C22.5891 19.5837 22.7459 19.3266 22.8366 19.0438C23.1048 18.2207 23.2366 17.3593 23.2266 16.4938C23.2566 16.0738 23.2566 13.5388 23.2566 13.0888ZM13.3116 16.9438V12.3013L17.7516 14.6338C16.5066 15.3238 14.8641 16.1038 13.3116 16.9438Z" fill="#294857"/>
</svg>
