<svg width="30" height="30" viewBox="0 0 30 30" fill="none" xmlns="http://www.w3.org/2000/svg">
	<circle cx="15" cy="15" r="14" stroke="#1F3641" stroke-width="2"/>
	<path d="M17.3047 7.5H12.7031C8.49998 7.5 7.5 8.49998 7.5 12.6953V17.2969C7.5 21.5 8.49221 22.5 12.6953 22.5H17.2969C21.5 22.5 22.5 21.5078 22.5 17.3047V12.7031C22.5 8.49998 21.5078 7.5 17.3047 7.5ZM19.6094 18.2031H18.5156C18.1016 18.2031 17.9766 17.8672 17.2344 17.125C16.5859 16.5 16.3125 16.4219 16.1484 16.4219C15.9219 16.4219 15.8594 16.4843 15.8594 16.7969V17.7812C15.8594 18.0469 15.7734 18.2031 15.0781 18.2031C14.4034 18.1578 13.7491 17.9528 13.1692 17.6051C12.5892 17.2574 12.1001 16.7768 11.7422 16.2031C10.8925 15.1455 10.3013 13.9043 10.0156 12.5781C10.0156 12.414 10.0781 12.2656 10.3906 12.2656H11.4844C11.7656 12.2656 11.8672 12.3906 11.9766 12.6797C12.5078 14.2422 13.4141 15.6015 13.7812 15.6015C13.9219 15.6015 13.9844 15.5391 13.9844 15.1875V13.5781C13.9375 12.8437 13.5469 12.7812 13.5469 12.5156C13.552 12.4456 13.5843 12.3802 13.6368 12.3336C13.6893 12.2869 13.7579 12.2625 13.8281 12.2656H15.5469C15.7813 12.2656 15.8594 12.3828 15.8594 12.664V14.8359C15.8594 15.0703 15.9609 15.1484 16.0312 15.1484C16.1719 15.1484 16.2812 15.0703 16.539 14.8125C17.0931 14.1369 17.5457 13.3842 17.8828 12.5781C17.9172 12.4811 17.9824 12.3981 18.0685 12.3416C18.1546 12.2852 18.2567 12.2585 18.3594 12.2656H19.4531C19.7812 12.2656 19.8516 12.4297 19.7812 12.664C19.3833 13.5553 18.8909 14.4013 18.3125 15.1875C18.1953 15.3672 18.1485 15.4609 18.3125 15.6719C18.4219 15.8359 18.8047 16.1562 19.0625 16.4609C19.4375 16.835 19.7489 17.2678 19.9844 17.7422C20.0781 18.0469 19.9219 18.2031 19.6094 18.2031V18.2031Z"
		  fill="#1F3641"/>
</svg>
