<svg width="30" height="30" viewBox="0 0 30 30" fill="none" xmlns="http://www.w3.org/2000/svg">
<circle cx="15" cy="15" r="14" stroke="#294857" stroke-width="2"/>
<path d="M15 13.14C14.6321 13.14 14.2725 13.2491 13.9666 13.4535C13.6608 13.6578 13.4224 13.9483 13.2816 14.2882C13.1408 14.6281 13.104 15.0021 13.1757 15.3629C13.2475 15.7237 13.4247 16.0551 13.6848 16.3152C13.9449 16.5753 14.2763 16.7525 14.6371 16.8243C14.9979 16.896 15.3719 16.8592 15.7118 16.7184C16.0517 16.5776 16.3422 16.3392 16.5465 16.0334C16.7509 15.7275 16.86 15.3679 16.86 15C16.86 14.7557 16.8119 14.5139 16.7184 14.2882C16.6249 14.0625 16.4879 13.8575 16.3152 13.6848C16.1425 13.5121 15.9375 13.3751 15.7118 13.2816C15.4861 13.1881 15.2443 13.14 15 13.14ZM22.4475 11.3025C22.4436 10.7233 22.3369 10.1494 22.1325 9.6075C21.982 9.21094 21.749 8.85082 21.4491 8.55089C21.1492 8.25096 20.7891 8.01804 20.3925 7.8675C19.8506 7.6631 19.2767 7.55645 18.6975 7.5525C17.73 7.5 17.445 7.5 15 7.5C12.555 7.5 12.27 7.5 11.3025 7.5525C10.7233 7.55645 10.1494 7.6631 9.6075 7.8675C9.21094 8.01804 8.85082 8.25096 8.55089 8.55089C8.25096 8.85082 8.01804 9.21094 7.8675 9.6075C7.6631 10.1494 7.55645 10.7233 7.5525 11.3025C7.5 12.27 7.5 12.555 7.5 15C7.5 17.445 7.5 17.73 7.5525 18.6975C7.56057 19.2787 7.66708 19.8544 7.8675 20.4C8.01737 20.7947 8.2501 21.1528 8.55 21.45C8.84865 21.7517 9.20954 21.9846 9.6075 22.1325C10.1494 22.3369 10.7233 22.4436 11.3025 22.4475C12.27 22.5 12.555 22.5 15 22.5C17.445 22.5 17.73 22.5 18.6975 22.4475C19.2767 22.4436 19.8506 22.3369 20.3925 22.1325C20.7905 21.9846 21.1514 21.7517 21.45 21.45C21.7499 21.1528 21.9826 20.7947 22.1325 20.4C22.3367 19.8554 22.4433 19.2791 22.4475 18.6975C22.5 17.73 22.5 17.445 22.5 15C22.5 12.555 22.5 12.27 22.4475 11.3025ZM20.5425 17.3025C20.5184 17.7653 20.4197 18.2212 20.25 18.6525C20.1044 19.0123 19.8879 19.3391 19.6135 19.6135C19.3391 19.8879 19.0123 20.1044 18.6525 20.25C18.2171 20.4102 17.7587 20.4988 17.295 20.5125C16.7025 20.5125 16.545 20.5125 15 20.5125C13.455 20.5125 13.2975 20.5125 12.705 20.5125C12.2413 20.4988 11.7829 20.4102 11.3475 20.25C10.9756 20.1118 10.6397 19.8913 10.365 19.605C10.0933 19.3359 9.88338 19.0109 9.75 18.6525C9.58917 18.2176 9.50295 17.7586 9.495 17.295C9.495 16.7025 9.495 16.545 9.495 15C9.495 13.455 9.495 13.2975 9.495 12.705C9.50295 12.2414 9.58917 11.7824 9.75 11.3475C9.88821 10.9756 10.1087 10.6397 10.395 10.365C10.6653 10.0947 10.9899 9.88507 11.3475 9.75C11.7829 9.5898 12.2413 9.50116 12.705 9.4875C13.2975 9.4875 13.455 9.4875 15 9.4875C16.545 9.4875 16.7025 9.4875 17.295 9.4875C17.7587 9.50116 18.2171 9.5898 18.6525 9.75C19.0244 9.88821 19.3603 10.1087 19.635 10.395C19.9068 10.6641 20.1166 10.9891 20.25 11.3475C20.4102 11.7829 20.4988 12.2413 20.5125 12.705C20.5125 13.2975 20.5125 13.455 20.5125 15C20.5125 16.545 20.565 16.7025 20.5425 17.295V17.3025ZM19.3425 11.7225C19.2532 11.4802 19.1124 11.2602 18.9298 11.0777C18.7473 10.8951 18.5273 10.7543 18.285 10.665C17.9524 10.5497 17.602 10.4938 17.25 10.5C16.665 10.5 16.5 10.5 15 10.5C13.5 10.5 13.335 10.5 12.75 10.5C12.3962 10.5035 12.0458 10.5695 11.715 10.695C11.4764 10.7802 11.2588 10.9153 11.0764 11.0912C10.8941 11.267 10.7513 11.4797 10.6575 11.715C10.5486 12.049 10.4954 12.3987 10.5 12.75C10.5 13.335 10.5 13.5 10.5 15C10.5 16.5 10.5 16.665 10.5 17.25C10.5074 17.6034 10.5733 17.9531 10.695 18.285C10.7843 18.5273 10.9251 18.7473 11.1077 18.9298C11.2902 19.1124 11.5102 19.2532 11.7525 19.3425C12.0725 19.4602 12.4092 19.526 12.75 19.5375C13.335 19.5375 13.5 19.5375 15 19.5375C16.5 19.5375 16.665 19.5375 17.25 19.5375C17.6038 19.534 17.9542 19.468 18.285 19.3425C18.5273 19.2532 18.7473 19.1124 18.9298 18.9298C19.1124 18.7473 19.2532 18.5273 19.3425 18.285C19.468 17.9542 19.534 17.6038 19.5375 17.25C19.5375 16.665 19.5375 16.5 19.5375 15C19.5375 13.5 19.5375 13.335 19.5375 12.75C19.5377 12.3958 19.4716 12.0448 19.3425 11.715V11.7225ZM15 17.865C14.6241 17.865 14.2519 17.7908 13.9047 17.6468C13.5576 17.5027 13.2422 17.2915 12.9768 17.0254C12.7113 16.7593 12.501 16.4434 12.3579 16.0958C12.2147 15.7483 12.1415 15.3759 12.1425 15C12.1425 14.433 12.3107 13.8788 12.6259 13.4075C12.941 12.9362 13.3889 12.569 13.9129 12.3524C14.4368 12.1358 15.0132 12.0795 15.5692 12.1906C16.1252 12.3018 16.6356 12.5754 17.036 12.9768C17.4364 13.3782 17.7087 13.8894 17.8184 14.4457C17.9281 15.0019 17.8703 15.5782 17.6523 16.1016C17.4343 16.625 17.0659 17.0719 16.5937 17.3858C16.1216 17.6997 15.567 17.8665 15 17.865ZM18 12.6975C17.8342 12.68 17.6808 12.6017 17.5693 12.4777C17.4578 12.3538 17.3961 12.193 17.3961 12.0262C17.3961 11.8595 17.4578 11.6987 17.5693 11.5748C17.6808 11.4508 17.8342 11.3725 18 11.355C18.1658 11.3725 18.3192 11.4508 18.4307 11.5748C18.5422 11.6987 18.6039 11.8595 18.6039 12.0262C18.6039 12.193 18.5422 12.3538 18.4307 12.4777C18.3192 12.6017 18.1658 12.68 18 12.6975Z" fill="#294857"/>
</svg>
