<svg width="30" height="30" viewBox="0 0 30 30" fill="none" xmlns="http://www.w3.org/2000/svg">
<circle cx="15" cy="15" r="14" stroke="#294857" stroke-width="2"/>
<g clip-path="url(#clip0_380_3788)">
<path d="M21.675 7.5H8.325C8.1062 7.5 7.89635 7.58692 7.74164 7.74164C7.58692 7.89635 7.5 8.1062 7.5 8.325V21.675C7.5 21.7833 7.52134 21.8906 7.5628 21.9907C7.60426 22.0908 7.66503 22.1818 7.74164 22.2584C7.81825 22.335 7.90919 22.3957 8.00929 22.4372C8.10938 22.4787 8.21666 22.5 8.325 22.5H15.51V16.6875H13.56V14.4375H15.51V12.75C15.4696 12.3538 15.5164 11.9536 15.647 11.5774C15.7777 11.2012 15.9891 10.8582 16.2663 10.5723C16.5436 10.2865 16.8801 10.0647 17.2521 9.92268C17.6242 9.78063 18.0228 9.72169 18.42 9.75C19.0037 9.74641 19.5872 9.77646 20.1675 9.84V11.865H18.975C18.03 11.865 17.85 12.315 17.85 12.9675V14.415H20.1L19.8075 16.665H17.85V22.5H21.675C21.7833 22.5 21.8906 22.4787 21.9907 22.4372C22.0908 22.3957 22.1818 22.335 22.2584 22.2584C22.335 22.1818 22.3957 22.0908 22.4372 21.9907C22.4787 21.8906 22.5 21.7833 22.5 21.675V8.325C22.5 8.21666 22.4787 8.10938 22.4372 8.00929C22.3957 7.90919 22.335 7.81825 22.2584 7.74164C22.1818 7.66503 22.0908 7.60426 21.9907 7.5628C21.8906 7.52134 21.7833 7.5 21.675 7.5Z" fill="#294857"/>
</g>
<defs>
<clipPath id="clip0_380_3788">
<path d="M7.5 15C7.5 11.7125 7.5 10.0688 8.40796 8.96243C8.57418 8.75989 8.75989 8.57418 8.96243 8.40796C10.0688 7.5 11.7125 7.5 15 7.5C18.2875 7.5 19.9312 7.5 21.0376 8.40796C21.2401 8.57418 21.4258 8.75989 21.592 8.96243C22.5 10.0688 22.5 11.7125 22.5 15C22.5 18.2875 22.5 19.9312 21.592 21.0376C21.4258 21.2401 21.2401 21.4258 21.0376 21.592C19.9312 22.5 18.2875 22.5 15 22.5C11.7125 22.5 10.0688 22.5 8.96243 21.592C8.75989 21.4258 8.57418 21.2401 8.40796 21.0376C7.5 19.9312 7.5 18.2875 7.5 15Z" fill="white"/>
</clipPath>
</defs>
</svg>
