<svg width="30" height="30" viewBox="0 0 30 30" fill="none" xmlns="http://www.w3.org/2000/svg">
	<circle cx="15" cy="15" r="14" stroke="#1F3641" stroke-width="2"/>
	<path d="M22.5 10.9125C22.4916 10.5889 22.4665 10.266 22.425 9.945C22.369 9.66384 22.2757 9.39143 22.1475 9.135C22.0134 8.85683 21.8334 8.60327 21.615 8.385C21.3946 8.16915 21.1415 7.98944 20.865 7.8525C20.6082 7.72683 20.3358 7.63603 20.055 7.5825C19.737 7.53487 19.4164 7.50732 19.095 7.5H10.9125C10.5889 7.50843 10.266 7.53346 9.945 7.575C9.66384 7.631 9.39143 7.72433 9.135 7.8525C8.85683 7.98655 8.60327 8.16658 8.385 8.385C8.16915 8.60543 7.98944 8.85855 7.8525 9.135C7.72683 9.39177 7.63603 9.66418 7.5825 9.945C7.53487 10.263 7.50732 10.5836 7.5 10.905C7.5 11.0475 7.5 11.25 7.5 11.31V18.69C7.5 18.7725 7.5 18.9525 7.5 19.0875C7.50843 19.4111 7.53346 19.734 7.575 20.055C7.631 20.3362 7.72433 20.6086 7.8525 20.865C7.98655 21.1432 8.16658 21.3967 8.385 21.615C8.60543 21.8308 8.85855 22.0106 9.135 22.1475C9.39177 22.2732 9.66418 22.364 9.945 22.4175C10.263 22.4651 10.5836 22.4927 10.905 22.5H19.0875C19.4111 22.4916 19.734 22.4665 20.055 22.425C20.3362 22.369 20.6086 22.2757 20.865 22.1475C21.1432 22.0134 21.3967 21.8334 21.615 21.615C21.8308 21.3946 22.0106 21.1415 22.1475 20.865C22.2732 20.6082 22.364 20.3358 22.4175 20.055C22.4651 19.737 22.4927 19.4164 22.5 19.095C22.5 18.9525 22.5 18.7725 22.5 18.69V11.31C22.5 11.25 22.5 11.0475 22.5 10.9125ZM15.1725 20.25C14.2718 20.2456 13.3868 20.0134 12.6 19.575L9.75 20.325L10.5 17.535C10.0163 16.7223 9.75749 15.7957 9.75 14.85C9.75299 13.7872 10.0704 12.749 10.6623 11.8663C11.2541 10.9835 12.094 10.2956 13.076 9.88929C14.0581 9.48293 15.1384 9.37625 16.181 9.5827C17.2236 9.78915 18.1817 10.2995 18.9348 11.0495C19.6879 11.7994 20.2022 12.7554 20.413 13.7971C20.6238 14.8388 20.5216 15.9196 20.1193 16.9034C19.7171 17.8871 19.0327 18.7298 18.1524 19.3253C17.2721 19.9209 16.2353 20.2426 15.1725 20.25ZM15.1725 10.4025C14.3774 10.4116 13.5988 10.6312 12.9162 11.0391C12.2335 11.4469 11.6711 12.0283 11.2862 12.7241C10.9013 13.42 10.7077 14.2054 10.7251 15.0004C10.7424 15.7954 10.9701 16.5716 11.385 17.25L11.49 17.4225L11.04 19.065L12.75 18.6L12.915 18.6975C13.5972 19.0993 14.3733 19.314 15.165 19.32C16.3585 19.32 17.5031 18.8459 18.347 18.002C19.1909 17.1581 19.665 16.0135 19.665 14.82C19.665 13.6265 19.1909 12.4819 18.347 11.638C17.5031 10.7941 16.3585 10.32 15.165 10.32L15.1725 10.4025ZM17.7975 16.7925C17.6993 16.9563 17.5677 17.0978 17.4114 17.2076C17.2551 17.3174 17.0775 17.3932 16.89 17.43C16.6099 17.4812 16.3215 17.4632 16.05 17.3775C15.7945 17.2976 15.5441 17.2025 15.3 17.0925C14.3728 16.6272 13.5821 15.9295 13.005 15.0675C12.6914 14.6681 12.5011 14.1859 12.4575 13.68C12.453 13.4698 12.4928 13.2611 12.5742 13.0673C12.6556 12.8735 12.7768 12.6989 12.93 12.555C12.9751 12.5038 13.0305 12.4627 13.0925 12.4343C13.1545 12.4059 13.2218 12.3908 13.29 12.39H13.5C13.5825 12.39 13.695 12.39 13.8 12.6225C13.905 12.855 14.1825 13.5525 14.22 13.62C14.2384 13.656 14.248 13.6958 14.248 13.7362C14.248 13.7767 14.2384 13.8165 14.22 13.8525C14.1868 13.934 14.1413 14.0099 14.085 14.0775C14.0175 14.16 13.9425 14.2575 13.8825 14.3175C13.8225 14.3775 13.7475 14.4525 13.8225 14.5875C14.0266 14.9319 14.2792 15.2451 14.5725 15.5175C14.8919 15.7998 15.2572 16.0255 15.6525 16.185C15.7875 16.2525 15.87 16.245 15.945 16.185C16.02 16.125 16.2825 15.795 16.3725 15.66C16.4625 15.525 16.5525 15.5475 16.6725 15.5925C16.7925 15.6375 17.46 15.96 17.595 16.0275C17.73 16.095 17.8125 16.125 17.85 16.185C17.8825 16.3813 17.8645 16.5826 17.7975 16.77V16.7925Z"
		  fill="#1F3641"/>
</svg>
