<svg width="16" height="16" viewBox="0 0 16 16" fill="none" xmlns="http://www.w3.org/2000/svg">
<path d="M15.5 3.9125C15.4916 3.58893 15.4665 3.266 15.425 2.945C15.369 2.66384 15.2757 2.39143 15.1475 2.135C15.0134 1.85683 14.8334 1.60327 14.615 1.385C14.3946 1.16915 14.1415 0.989443 13.865 0.8525C13.6082 0.726833 13.3358 0.63603 13.055 0.5825C12.737 0.534875 12.4164 0.50732 12.095 0.5H3.9125C3.58893 0.508427 3.266 0.53346 2.945 0.575C2.66384 0.631001 2.39143 0.724328 2.135 0.8525C1.85683 0.986553 1.60327 1.16658 1.385 1.385C1.16915 1.60543 0.989443 1.85855 0.8525 2.135C0.726833 2.39177 0.63603 2.66418 0.5825 2.945C0.534875 3.26295 0.50732 3.58359 0.5 3.905C0.5 4.0475 0.5 4.25 0.5 4.31V11.69C0.5 11.7725 0.5 11.9525 0.5 12.0875C0.508427 12.4111 0.53346 12.734 0.575 13.055C0.631001 13.3362 0.724328 13.6086 0.8525 13.865C0.986553 14.1432 1.16658 14.3967 1.385 14.615C1.60543 14.8308 1.85855 15.0106 2.135 15.1475C2.39177 15.2732 2.66418 15.364 2.945 15.4175C3.26295 15.4651 3.58359 15.4927 3.905 15.5H12.0875C12.4111 15.4916 12.734 15.4665 13.055 15.425C13.3362 15.369 13.6086 15.2757 13.865 15.1475C14.1432 15.0134 14.3967 14.8334 14.615 14.615C14.8308 14.3946 15.0106 14.1415 15.1475 13.865C15.2732 13.6082 15.364 13.3358 15.4175 13.055C15.4651 12.737 15.4927 12.4164 15.5 12.095C15.5 11.9525 15.5 11.7725 15.5 11.69V4.31C15.5 4.25 15.5 4.0475 15.5 3.9125ZM8.1725 13.25C7.2718 13.2456 6.38685 13.0134 5.6 12.575L2.75 13.325L3.5 10.535C3.01634 9.72234 2.75749 8.79567 2.75 7.85C2.75299 6.78719 3.0704 5.74904 3.66227 4.86628C4.25414 3.98352 5.09399 3.29565 6.07605 2.88929C7.0581 2.48293 8.13845 2.37625 9.18102 2.5827C10.2236 2.78915 11.1817 3.2995 11.9348 4.04945C12.6879 4.79941 13.2022 5.75544 13.413 6.79714C13.6238 7.83884 13.5216 8.91962 13.1193 9.90336C12.7171 10.8871 12.0327 11.7298 11.1524 12.3253C10.2721 12.9209 9.23528 13.2426 8.1725 13.25ZM8.1725 3.4025C7.37736 3.4116 6.59882 3.63124 5.91617 4.03905C5.23351 4.44687 4.67111 5.0283 4.28622 5.72414C3.90134 6.41998 3.70771 7.20539 3.72506 8.0004C3.74241 8.7954 3.97012 9.57161 4.385 10.25L4.49 10.4225L4.04 12.065L5.75 11.6L5.915 11.6975C6.59718 12.0993 7.3733 12.314 8.165 12.32C9.35847 12.32 10.5031 11.8459 11.347 11.002C12.1909 10.1581 12.665 9.01347 12.665 7.82C12.665 6.62653 12.1909 5.48193 11.347 4.63802C10.5031 3.79411 9.35847 3.32 8.165 3.32L8.1725 3.4025ZM10.7975 9.7925C10.6993 9.95635 10.5677 10.0978 10.4114 10.2076C10.2551 10.3174 10.0775 10.3932 9.89 10.43C9.6099 10.4812 9.32154 10.4632 9.05 10.3775C8.79451 10.2976 8.54406 10.2025 8.3 10.0925C7.37281 9.62725 6.58208 8.92955 6.005 8.0675C5.69141 7.66811 5.50114 7.18591 5.4575 6.68C5.45303 6.46984 5.49279 6.26109 5.57419 6.06728C5.65559 5.87348 5.77681 5.69894 5.93 5.555C5.97512 5.50384 6.03048 5.46272 6.09249 5.4343C6.1545 5.40588 6.22179 5.39079 6.29 5.39H6.5C6.5825 5.39 6.695 5.39 6.8 5.6225C6.905 5.855 7.1825 6.5525 7.22 6.62C7.23843 6.65598 7.24804 6.69583 7.24804 6.73625C7.24804 6.77667 7.23843 6.81652 7.22 6.8525C7.18685 6.934 7.14131 7.00989 7.085 7.0775C7.0175 7.16 6.9425 7.2575 6.8825 7.3175C6.8225 7.3775 6.7475 7.4525 6.8225 7.5875C7.02657 7.93189 7.27916 8.24511 7.5725 8.5175C7.89194 8.79977 8.25718 9.0255 8.6525 9.185C8.7875 9.2525 8.87 9.245 8.945 9.185C9.02 9.125 9.2825 8.795 9.3725 8.66C9.4625 8.525 9.5525 8.5475 9.6725 8.5925C9.7925 8.6375 10.46 8.96 10.595 9.0275C10.73 9.095 10.8125 9.125 10.85 9.185C10.8825 9.38129 10.8645 9.58264 10.7975 9.77V9.7925Z" fill="white"/>
</svg>
