<svg width="16" height="16" viewBox="0 0 16 16" fill="none" xmlns="http://www.w3.org/2000/svg">
<path d="M10.3047 0.5H5.70312C1.49998 0.5 0.5 1.49998 0.5 5.6953V10.2969C0.5 14.5 1.49221 15.5 5.6953 15.5H10.2969C14.5 15.5 15.5 14.5078 15.5 10.3047V5.70312C15.5 1.49998 14.5078 0.5 10.3047 0.5ZM12.6094 11.2031H11.5156C11.1016 11.2031 10.9766 10.8672 10.2344 10.125C9.58592 9.5 9.3125 9.42186 9.14844 9.42186C8.92189 9.42186 8.85936 9.48435 8.85936 9.79686V10.7812C8.85936 11.0469 8.77344 11.2031 8.07814 11.2031C7.40343 11.1578 6.74914 10.9528 6.16916 10.6051C5.58918 10.2574 5.10009 9.77685 4.74219 9.2031C3.89252 8.14553 3.30133 6.90429 3.01564 5.57811C3.01564 5.41405 3.07812 5.2656 3.39064 5.2656H4.48438C4.76562 5.2656 4.86721 5.39061 4.97656 5.67969C5.50779 7.24217 6.41408 8.60155 6.78125 8.60155C6.92188 8.60155 6.98436 8.53906 6.98436 8.1875V6.5781C6.93748 5.84375 6.54688 5.78122 6.54688 5.51562C6.55202 5.44555 6.58427 5.38024 6.63678 5.33356C6.68929 5.28688 6.75793 5.2625 6.82812 5.2656H8.54689C8.78127 5.2656 8.85936 5.38278 8.85936 5.66403V7.83594C8.85936 8.07031 8.96094 8.14841 9.03125 8.14841C9.17188 8.14841 9.28123 8.07031 9.53905 7.8125C10.0931 7.13689 10.5457 6.38419 10.8828 5.57811C10.9172 5.48112 10.9824 5.39806 11.0685 5.34162C11.1546 5.28519 11.2567 5.25849 11.3594 5.2656H12.4531C12.7812 5.2656 12.8516 5.42966 12.7812 5.66403C12.3833 6.55527 11.8909 7.40126 11.3125 8.1875C11.1953 8.36717 11.1485 8.46092 11.3125 8.67186C11.4219 8.83592 11.8047 9.15622 12.0625 9.46091C12.4375 9.83496 12.7489 10.2678 12.9844 10.7422C13.0781 11.0469 12.9219 11.2031 12.6094 11.2031Z" fill="white"/>
</svg>
