<svg width="18" height="12" viewBox="0 0 18 12" fill="none" xmlns="http://www.w3.org/2000/svg">
<path d="M17.2566 4.08876C17.2937 3.01525 17.0589 1.94978 16.5741 0.991262C16.2452 0.597961 15.7887 0.332545 15.2841 0.241262C13.1973 0.0519064 11.1018 -0.0257044 9.00661 0.00876247C6.9191 -0.0272688 4.83114 0.0478376 2.75161 0.233763C2.34048 0.30855 1.96 0.501394 1.65661 0.788762C0.981612 1.41126 0.906612 2.47626 0.831612 3.37626C0.722796 4.99444 0.722796 6.61809 0.831612 8.23626C0.85331 8.74282 0.928732 9.24563 1.05661 9.73626C1.14704 10.1151 1.33 10.4655 1.58911 10.7563C1.89456 11.0589 2.2839 11.2627 2.70661 11.3413C4.32355 11.5408 5.95278 11.6236 7.58161 11.5888C10.2066 11.6263 12.5091 11.5888 15.2316 11.3788C15.6647 11.305 16.065 11.1009 16.3791 10.7938C16.5891 10.5837 16.7459 10.3266 16.8366 10.0438C17.1048 9.22072 17.2366 8.35934 17.2266 7.49376C17.2566 7.07376 17.2566 4.53876 17.2566 4.08876ZM7.31161 7.94376V3.30126L11.7516 5.63376C10.5066 6.32376 8.86411 7.10376 7.31161 7.94376Z" fill="white"/>
</svg>
